<svg xmlns="http://www.w3.org/2000/svg" xmlns:xlink="http://www.w3.org/1999/xlink" version="1.1" width="320pt" height="80" viewBox="20 20 280 125" style="overflow: visible;">
<g>
<path transform="matrix(1,0,0,1,-138.711,-25.682923)" d="M1.262 1.406H634.801C635.02 1.406 635.191 1.582 635.191 1.801V246.16C635.191 246.375 635.02 246.551 634.801 246.551H1.262C1.043 246.551 .867 246.375 .867 246.16V1.801C.867 1.582 1.043 1.406 1.262 1.406ZM1.262 1.406" fill="#0d294e"/>
<path transform="matrix(1,0,0,1,-138.711,-25.682923)" d="M262.367 118.406C262.367 119.633 261.367 120.633 260.141 120.633 258.91 120.633 257.914 119.633 257.914 118.406 257.914 117.176 258.91 116.18 260.141 116.18 261.367 116.18 262.367 117.176 262.367 118.406" fill="#ffffff"/>
<path transform="matrix(1,0,0,1,-138.711,-25.682923)" d="M262.367 113.477C262.367 114.703 261.367 115.703 260.141 115.703 258.91 115.703 257.914 114.703 257.914 113.477 257.914 112.246 258.91 111.25 260.141 111.25 261.367 111.25 262.367 112.246 262.367 113.477" fill="#ffffff"/>
<path transform="matrix(1,0,0,1,-138.711,-25.682923)" d="M262.914 108.637C262.914 109.867 261.922 110.867 260.688 110.867 259.461 110.867 258.461 109.867 258.461 108.637 258.461 107.41 259.461 106.414 260.688 106.414 261.922 106.414 262.914 107.41 262.914 108.637" fill="#ffffff"/>
<path transform="matrix(1,0,0,1,-138.711,-25.682923)" d="M262.914 103.801C262.914 105.031 261.922 106.031 260.688 106.031 259.461 106.031 258.461 105.031 258.461 103.801 258.461 102.574 259.461 101.578 260.688 101.578 261.922 101.578 262.914 102.574 262.914 103.801" fill="#ffffff"/>
<path transform="matrix(1,0,0,1,-138.711,-25.682923)" d="M262.914 98.965C262.914 100.195 261.922 101.195 260.688 101.195 259.461 101.195 258.461 100.195 258.461 98.965 258.461 97.734 259.461 96.738 260.688 96.738 261.922 96.738 262.914 97.734 262.914 98.965" fill="#ffffff"/>
<path transform="matrix(1,0,0,1,-138.711,-25.682923)" d="M262.914 94.129C262.914 95.359 261.922 96.359 260.688 96.359 259.461 96.359 258.461 95.359 258.461 94.129 258.461 92.898 259.461 91.902 260.688 91.902 261.922 91.902 262.914 92.898 262.914 94.129" fill="#ffffff"/>
<path transform="matrix(1,0,0,1,-138.711,-25.682923)" d="M262.914 89.293C262.914 90.523 261.922 91.523 260.688 91.523 259.461 91.523 258.461 90.523 258.461 89.293 258.461 88.062 259.461 87.066 260.688 87.066 261.922 87.066 262.914 88.062 262.914 89.293" fill="#ffffff"/>
<path transform="matrix(1,0,0,1,-138.711,-25.682923)" d="M262.914 84.457C262.914 85.688 261.922 86.684 260.688 86.684 259.461 86.684 258.461 85.688 258.461 84.457 258.461 83.227 259.461 82.23 260.688 82.23 261.922 82.23 262.914 83.227 262.914 84.457" fill="#ffffff"/>
<path transform="matrix(1,0,0,1,-138.711,-25.682923)" d="M262.914 79.621C262.914 80.852 261.922 81.844 260.688 81.844 259.461 81.844 258.461 80.852 258.461 79.621 258.461 78.391 259.461 77.395 260.688 77.395 261.922 77.395 262.914 78.391 262.914 79.621" fill="#ffffff"/>
<path transform="matrix(1,0,0,1,-138.711,-25.682923)" d="M262.914 74.785C262.914 76.012 261.922 77.008 260.688 77.008 259.461 77.008 258.461 76.012 258.461 74.785 258.461 73.555 259.461 72.559 260.688 72.559 261.922 72.559 262.914 73.555 262.914 74.785" fill="#ffffff"/>
<path transform="matrix(1,0,0,1,-138.711,-25.682923)" d="M262.914 69.949C262.914 71.176 261.922 72.172 260.688 72.172 259.461 72.172 258.461 71.176 258.461 69.949 258.461 68.719 259.461 67.723 260.688 67.723 261.922 67.723 262.914 68.719 262.914 69.949" fill="#ffffff"/>
<path transform="matrix(1,0,0,1,-138.711,-25.682923)" d="M267.297 120.633C267.297 121.863 266.305 122.859 265.07 122.859 263.844 122.859 262.844 121.863 262.844 120.633 262.844 119.402 263.844 118.406 265.07 118.406 266.305 118.406 267.297 119.402 267.297 120.633" fill="#ffffff"/>
<path transform="matrix(1,0,0,1,-138.711,-25.682923)" d="M267.297 115.703C267.297 116.93 266.305 117.93 265.07 117.93 263.844 117.93 262.844 116.93 262.844 115.703 262.844 114.473 263.844 113.477 265.07 113.477 266.305 113.477 267.297 114.473 267.297 115.703" fill="#ffffff"/>
<path transform="matrix(1,0,0,1,-138.711,-25.682923)" d="M267.297 110.867C267.297 112.094 266.305 113.094 265.07 113.094 263.844 113.094 262.844 112.094 262.844 110.867 262.844 109.637 263.844 108.641 265.07 108.641 266.305 108.641 267.297 109.637 267.297 110.867" fill="#ffffff"/>
<path transform="matrix(1,0,0,1,-138.711,-25.682923)" d="M267.848 106.031C267.848 107.258 266.852 108.258 265.621 108.258 264.391 108.258 263.395 107.258 263.395 106.031 263.395 104.797 264.391 103.805 265.621 103.805 266.852 103.805 267.848 104.797 267.848 106.031" fill="#ffffff"/>
<path transform="matrix(1,0,0,1,-138.711,-25.682923)" d="M267.848 101.195C267.848 102.422 266.852 103.422 265.621 103.422 264.391 103.422 263.395 102.422 263.395 101.195 263.395 99.961 264.391 98.969 265.621 98.969 266.852 98.969 267.848 99.961 267.848 101.195" fill="#ffffff"/>
<path transform="matrix(1,0,0,1,-138.711,-25.682923)" d="M267.848 96.355C267.848 97.586 266.852 98.582 265.621 98.582 264.391 98.582 263.395 97.586 263.395 96.355 263.395 95.125 264.391 94.133 265.621 94.133 266.852 94.133 267.848 95.125 267.848 96.355" fill="#ffffff"/>
<path transform="matrix(1,0,0,1,-138.711,-25.682923)" d="M267.848 91.523C267.848 92.75 266.852 93.742 265.621 93.742 264.391 93.742 263.395 92.75 263.395 91.523 263.395 90.289 264.391 89.293 265.621 89.293 266.852 89.293 267.848 90.289 267.848 91.523" fill="#ffffff"/>
<path transform="matrix(1,0,0,1,-138.711,-25.682923)" d="M267.848 86.684C267.848 87.914 266.852 88.906 265.621 88.906 264.391 88.906 263.395 87.914 263.395 86.684 263.395 85.453 264.391 84.457 265.621 84.457 266.852 84.457 267.848 85.453 267.848 86.684" fill="#ffffff"/>
<path transform="matrix(1,0,0,1,-138.711,-25.682923)" d="M267.848 81.844C267.848 83.078 266.852 84.07 265.621 84.07 264.391 84.07 263.395 83.078 263.395 81.844 263.395 80.617 264.391 79.621 265.621 79.621 266.852 79.621 267.848 80.617 267.848 81.844" fill="#ffffff"/>
<path transform="matrix(1,0,0,1,-138.711,-25.682923)" d="M267.848 77.008C267.848 78.242 266.852 79.234 265.621 79.234 264.391 79.234 263.395 78.242 263.395 77.008 263.395 75.781 264.391 74.785 265.621 74.785 266.852 74.785 267.848 75.781 267.848 77.008" fill="#ffffff"/>
<path transform="matrix(1,0,0,1,-138.711,-25.682923)" d="M267.848 72.16C267.848 73.391 266.852 74.383 265.621 74.383 264.391 74.383 263.395 73.391 263.395 72.16 263.395 70.93 264.391 69.934 265.621 69.934 266.852 69.934 267.848 70.93 267.848 72.16" fill="#ffffff"/>
<path transform="matrix(1,0,0,1,-138.711,-25.682923)" d="M272.23 118.406C272.23 119.633 271.234 120.633 270.004 120.633 268.773 120.633 267.777 119.633 267.777 118.406 267.777 117.176 268.773 116.18 270.004 116.18 271.234 116.18 272.23 117.176 272.23 118.406" fill="#ffffff"/>
<path transform="matrix(1,0,0,1,-138.711,-25.682923)" d="M272.23 113.477C272.23 114.703 271.234 115.703 270.004 115.703 268.773 115.703 267.777 114.703 267.777 113.477 267.777 112.246 268.773 111.25 270.004 111.25 271.234 111.25 272.23 112.246 272.23 113.477" fill="#ffffff"/>
<path transform="matrix(1,0,0,1,-138.711,-25.682923)" d="M262.367 118.387C262.367 119.613 261.367 120.613 260.141 120.613 258.91 120.613 257.914 119.613 257.914 118.387 257.914 117.156 258.91 116.16 260.141 116.16 261.367 116.16 262.367 117.156 262.367 118.387" fill="#ffffff"/>
<path transform="matrix(1,0,0,1,-138.711,-25.682923)" d="M272.172 122.816C271.945 121.828 271.062 121.09 270.004 121.09 268.945 121.09 268.059 121.828 267.832 122.82L272.172 122.816" fill="#ffffff"/>
<path transform="matrix(1,0,0,1,-138.711,-25.682923)" d="M262.301 122.816C262.074 121.828 261.188 121.09 260.129 121.09 259.074 121.09 258.188 121.828 257.961 122.82L262.301 122.816" fill="#ffffff"/>
<path transform="matrix(1,0,0,1,-138.711,-25.682923)" d="M272.23 118.387C272.23 119.613 271.234 120.613 270.004 120.613 268.773 120.613 267.777 119.613 267.777 118.387 267.777 117.156 268.773 116.16 270.004 116.16 271.234 116.16 272.23 117.156 272.23 118.387" fill="#ffffff"/>
<path transform="matrix(1,0,0,1,-138.711,-25.682923)" d="M272.777 108.637C272.777 109.867 271.785 110.867 270.551 110.867 269.324 110.867 268.324 109.867 268.324 108.637 268.324 107.41 269.324 106.414 270.551 106.414 271.785 106.414 272.777 107.41 272.777 108.637" fill="#ffffff"/>
<path transform="matrix(1,0,0,1,-138.711,-25.682923)" d="M272.777 103.801C272.777 105.031 271.785 106.031 270.551 106.031 269.324 106.031 268.324 105.031 268.324 103.801 268.324 102.574 269.324 101.578 270.551 101.578 271.785 101.578 272.777 102.574 272.777 103.801" fill="#ffffff"/>
<path transform="matrix(1,0,0,1,-138.711,-25.682923)" d="M272.777 98.965C272.777 100.195 271.785 101.195 270.551 101.195 269.324 101.195 268.324 100.195 268.324 98.965 268.324 97.734 269.324 96.738 270.551 96.738 271.785 96.738 272.777 97.734 272.777 98.965" fill="#ffffff"/>
<path transform="matrix(1,0,0,1,-138.711,-25.682923)" d="M272.777 94.129C272.777 95.359 271.785 96.359 270.551 96.359 269.324 96.359 268.324 95.359 268.324 94.129 268.324 92.898 269.324 91.902 270.551 91.902 271.785 91.902 272.777 92.898 272.777 94.129" fill="#ffffff"/>
<path transform="matrix(1,0,0,1,-138.711,-25.682923)" d="M272.777 89.293C272.777 90.523 271.785 91.523 270.551 91.523 269.324 91.523 268.324 90.523 268.324 89.293 268.324 88.062 269.324 87.066 270.551 87.066 271.785 87.066 272.777 88.062 272.777 89.293" fill="#ffffff"/>
<path transform="matrix(1,0,0,1,-138.711,-25.682923)" d="M272.777 84.457C272.777 85.688 271.785 86.684 270.551 86.684 269.324 86.684 268.324 85.688 268.324 84.457 268.324 83.227 269.324 82.23 270.551 82.23 271.785 82.23 272.777 83.227 272.777 84.457" fill="#ffffff"/>
<path transform="matrix(1,0,0,1,-138.711,-25.682923)" d="M272.777 84.457C272.777 85.688 271.785 86.684 270.551 86.684 269.324 86.684 268.324 85.688 268.324 84.457 268.324 83.227 269.324 82.23 270.551 82.23 271.785 82.23 272.777 83.227 272.777 84.457" fill="#ffffff"/>
<path transform="matrix(1,0,0,1,-138.711,-25.682923)" d="M272.777 79.621C272.777 80.852 271.785 81.844 270.551 81.844 269.324 81.844 268.324 80.852 268.324 79.621 268.324 78.391 269.324 77.395 270.551 77.395 271.785 77.395 272.777 78.391 272.777 79.621" fill="#ffffff"/>
<path transform="matrix(1,0,0,1,-138.711,-25.682923)" d="M272.777 74.801C272.777 76.027 271.785 77.027 270.551 77.027 269.324 77.027 268.324 76.027 268.324 74.801 268.324 73.57 269.324 72.574 270.551 72.574 271.785 72.574 272.777 73.57 272.777 74.801" fill="#ffffff"/>
<path transform="matrix(1,0,0,1,-138.711,-25.682923)" d="M277.16 120.633C277.16 121.863 276.164 122.859 274.934 122.859 273.707 122.859 272.707 121.863 272.707 120.633 272.707 119.402 273.707 118.406 274.934 118.406 276.164 118.406 277.16 119.402 277.16 120.633" fill="#ffffff"/>
<path transform="matrix(1,0,0,1,-138.711,-25.682923)" d="M277.16 115.703C277.16 116.93 276.164 117.93 274.934 117.93 273.707 117.93 272.707 116.93 272.707 115.703 272.707 114.473 273.707 113.477 274.934 113.477 276.164 113.477 277.16 114.473 277.16 115.703" fill="#ffffff"/>
<path transform="matrix(1,0,0,1,-138.711,-25.682923)" d="M277.16 110.867C277.16 112.094 276.164 113.094 274.934 113.094 273.707 113.094 272.707 112.094 272.707 110.867 272.707 109.637 273.707 108.641 274.934 108.641 276.164 108.641 277.16 109.637 277.16 110.867" fill="#ffffff"/>
<path transform="matrix(1,0,0,1,-138.711,-25.682923)" d="M277.707 106.031C277.707 107.258 276.715 108.258 275.48 108.258 274.254 108.258 273.258 107.258 273.258 106.031 273.258 104.801 274.254 103.805 275.48 103.805 276.715 103.805 277.707 104.801 277.707 106.031" fill="#ffffff"/>
<path transform="matrix(1,0,0,1,-138.711,-25.682923)" d="M277.707 101.195C277.707 102.422 276.715 103.422 275.48 103.422 274.254 103.422 273.258 102.422 273.258 101.195 273.258 99.965 274.254 98.969 275.48 98.969 276.715 98.969 277.707 99.965 277.707 101.195" fill="#ffffff"/>
<path transform="matrix(1,0,0,1,-138.711,-25.682923)" d="M277.707 96.355C277.707 97.586 276.715 98.582 275.48 98.582 274.254 98.582 273.258 97.586 273.258 96.355 273.258 95.125 274.254 94.133 275.48 94.133 276.715 94.133 277.707 95.125 277.707 96.355" fill="#ffffff"/>
<path transform="matrix(1,0,0,1,-138.711,-25.682923)" d="M277.707 91.523C277.707 92.75 276.715 93.742 275.48 93.742 274.254 93.742 273.258 92.75 273.258 91.523 273.258 90.289 274.254 89.293 275.48 89.293 276.715 89.293 277.707 90.289 277.707 91.523" fill="#ffffff"/>
<path transform="matrix(1,0,0,1,-138.711,-25.682923)" d="M277.707 86.684C277.707 87.914 276.715 88.906 275.48 88.906 274.254 88.906 273.258 87.914 273.258 86.684 273.258 85.453 274.254 84.457 275.48 84.457 276.715 84.457 277.707 85.453 277.707 86.684" fill="#ffffff"/>
<path transform="matrix(1,0,0,1,-138.711,-25.682923)" d="M277.707 81.844C277.707 83.078 276.715 84.07 275.48 84.07 274.254 84.07 273.258 83.078 273.258 81.844 273.258 80.617 274.254 79.621 275.48 79.621 276.715 79.621 277.707 80.617 277.707 81.844" fill="#ffffff"/>
<path transform="matrix(1,0,0,1,-138.711,-25.682923)" d="M277.707 76.996C277.707 78.227 276.715 79.219 275.48 79.219 274.254 79.219 273.258 78.227 273.258 76.996 273.258 75.766 274.254 74.773 275.48 74.773 276.715 74.773 277.707 75.766 277.707 76.996" fill="#ffffff"/>
<path transform="matrix(1,0,0,1,-138.711,-25.682923)" d="M285.871 122.828 290.332 55.605H308.75L322.84 106.145 335.844 55.605H354.062L358.188 122.828H344.512L342.191 76.883 329.805 122.828H314.48L301.75 76.883 299.461 122.828H285.871" fill="#ffffff"/>
<path transform="matrix(1,0,0,1,-138.711,-25.682923)" d="M177.816 122.828 182.273 55.605H200.699L214.785 106.145 227.793 55.605H246.012L250.133 122.828H236.457L234.137 76.883 221.754 122.828H206.422L193.695 76.883 191.406 122.828H177.816" fill="#ffffff"/>
<path transform="matrix(1,0,0,1,-138.711,-25.682923)" d="M364.086 100.957 377.293 99.668C378.086 104.102 379.703 107.359 382.133 109.438 384.562 111.516 387.84 112.555 391.969 112.555 396.34 112.555 399.629 111.629 401.848 109.781 404.062 107.93 405.176 105.766 405.176 103.293 405.176 101.703 404.707 100.348 403.773 99.234 402.844 98.117 401.215 97.148 398.891 96.324 397.301 95.77 393.68 94.793 388.023 93.387 380.75 91.586 375.641 89.371 372.707 86.738 368.582 83.039 366.52 78.531 366.52 73.211 366.52 69.785 367.488 66.586 369.43 63.605 371.367 60.625 374.168 58.355 377.82 56.797 381.473 55.234 385.883 54.457 391.051 54.457 399.484 54.457 405.84 56.309 410.105 60.004 414.371 63.707 416.605 68.641 416.816 74.82L403.246 75.414C402.664 71.957 401.418 69.473 399.508 67.961 397.602 66.449 394.73 65.691 390.914 65.691 386.969 65.691 383.883 66.5 381.652 68.121 380.211 69.16 379.496 70.551 379.496 72.293 379.496 73.883 380.168 75.246 381.516 76.375 383.223 77.812 387.379 79.309 393.984 80.867 400.59 82.43 405.473 84.043 408.633 85.707 411.801 87.375 414.273 89.652 416.062 92.539 417.855 95.43 418.746 99 418.746 103.25 418.746 107.098 417.68 110.707 415.539 114.066 413.398 117.43 410.371 119.93 406.457 121.566 402.543 123.199 397.668 124.02 391.828 124.02 383.332 124.02 376.805 122.055 372.25 118.129 367.695 114.199 364.973 108.477 364.086 100.957" fill="#ffffff"/>
<path transform="matrix(1,0,0,1,-138.711,-25.682923)" d="M276.062 61.141C276.062 64.18 273.598 66.641 270.559 66.641 267.52 66.641 265.059 64.18 265.059 61.141 265.059 58.105 267.52 55.641 270.559 55.641 273.598 55.641 276.062 58.105 276.062 61.141" fill="#ffffff"/>
<path transform="matrix(1,0,0,1,-138.711,-25.682923)" d="M176.016 150.609H177.312L181.375 157.191V150.609H182.426V158.754H181.188L177.066 152.184V158.754H176.016V150.609" fill="#f0f5fb"/>
<path transform="matrix(1,0,0,1,-138.711,-25.682923)" d="M187.762 157.355C188.004 156.855 188.125 156.301 188.125 155.684 188.125 155.133 188.035 154.684 187.863 154.336 187.586 153.789 187.102 153.516 186.426 153.516 185.824 153.516 185.387 153.75 185.113 154.215 184.84 154.68 184.699 155.238 184.699 155.895 184.699 156.527 184.84 157.055 185.113 157.473 185.387 157.895 185.82 158.102 186.414 158.102 187.066 158.102 187.52 157.855 187.762 157.355ZM188.379 153.414C188.902 153.922 189.164 154.668 189.164 155.656 189.164 156.613 188.934 157.402 188.473 158.027 188.012 158.652 187.297 158.965 186.32 158.965 185.512 158.965 184.867 158.688 184.387 158.133 183.914 157.582 183.676 156.844 183.676 155.914 183.676 154.914 183.926 154.125 184.426 153.535 184.93 152.941 185.605 152.645 186.453 152.645 187.215 152.645 187.855 152.898 188.379 153.414" fill="#f0f5fb"/>
<path transform="matrix(1,0,0,1,-138.711,-25.682923)" d="M190.418 152.816H191.363V153.844C191.441 153.641 191.633 153.398 191.938 153.113 192.242 152.828 192.59 152.684 192.984 152.684 193.004 152.684 193.035 152.688 193.078 152.691 193.121 152.695 193.199 152.703 193.305 152.715V153.77C193.246 153.754 193.191 153.75 193.141 153.746 193.094 153.742 193.039 153.738 192.98 153.738 192.477 153.738 192.094 153.902 191.82 154.223 191.551 154.547 191.414 154.918 191.414 155.34V158.754H190.418V152.816" fill="#f0f5fb"/>
<path transform="matrix(1,0,0,1,-138.711,-25.682923)" d="M195.203 157.449C195.473 157.879 195.902 158.094 196.492 158.094 196.953 158.094 197.332 157.895 197.629 157.496 197.922 157.102 198.07 156.531 198.07 155.785 198.07 155.039 197.918 154.484 197.613 154.125 197.309 153.766 196.934 153.586 196.48 153.586 195.984 153.586 195.578 153.777 195.27 154.16 194.957 154.543 194.805 155.109 194.805 155.852 194.805 156.492 194.938 157.023 195.203 157.449ZM197.434 153C197.609 153.109 197.809 153.305 198.031 153.586V150.582H198.992V158.754H198.094V157.926C197.863 158.297 197.59 158.555 197.273 158.723 196.953 158.883 196.59 158.965 196.184 158.965 195.523 158.965 194.957 158.688 194.473 158.133 193.988 157.574 193.75 156.836 193.75 155.914 193.75 155.047 193.969 154.297 194.406 153.664 194.848 153.027 195.477 152.711 196.293 152.711 196.746 152.711 197.125 152.809 197.434 153" fill="#f0f5fb"/>
<path transform="matrix(1,0,0,1,-138.711,-25.682923)" d="M200.48 152.844H201.5V158.754H200.48ZM200.48 150.609H201.5V151.742H200.48V150.609" fill="#f0f5fb"/>
<path transform="matrix(1,0,0,1,-138.711,-25.682923)" d="M206.926 153.133C207.344 153.461 207.594 154.02 207.68 154.812H206.711C206.652 154.449 206.52 154.145 206.305 153.902 206.094 153.66 205.758 153.539 205.293 153.539 204.656 153.539 204.203 153.852 203.926 154.469 203.754 154.871 203.66 155.367 203.66 155.961 203.66 156.551 203.789 157.051 204.043 157.457 204.293 157.863 204.688 158.062 205.227 158.062 205.641 158.062 205.965 157.938 206.211 157.688 206.453 157.434 206.621 157.09 206.711 156.652H207.68C207.57 157.438 207.293 158.012 206.852 158.379 206.406 158.746 205.836 158.926 205.148 158.926 204.375 158.926 203.754 158.645 203.289 158.074 202.828 157.508 202.598 156.801 202.598 155.949 202.598 154.906 202.852 154.098 203.355 153.516 203.867 152.934 204.512 152.645 205.293 152.645 205.961 152.645 206.508 152.809 206.926 153.133" fill="#f0f5fb"/>
<path transform="matrix(1,0,0,1,-138.711,-25.682923)" d="M212.07 150.609H217.977V151.609H213.145V154.082H217.609V155.023H213.145V157.781H218.059V158.754H212.07V150.609" fill="#f0f5fb"/>
<path transform="matrix(1,0,0,1,-138.711,-25.682923)" d="M219.508 150.609H221.086L223.43 157.496 225.754 150.609H227.32V158.754H226.27V153.949C226.27 153.785 226.273 153.504 226.281 153.121 226.289 152.738 226.289 152.328 226.289 151.887L223.965 158.754H222.871L220.527 151.887V152.137C220.527 152.336 220.531 152.641 220.539 153.047 220.547 153.457 220.555 153.754 220.555 153.949V158.754H219.504V150.609" fill="#f0f5fb"/>
<path transform="matrix(1,0,0,1,-138.711,-25.682923)" d="M232.441 157.809C233.125 157.809 233.609 157.613 233.902 157.223 234.082 156.977 234.176 156.676 234.176 156.328 234.176 155.734 233.91 155.332 233.375 155.117 233.094 155.004 232.715 154.945 232.25 154.945H230.039V157.809ZM232.066 154.055C232.535 154.055 232.906 153.992 233.168 153.859 233.578 153.66 233.781 153.289 233.781 152.762 233.781 152.23 233.562 151.871 233.129 151.688 232.883 151.586 232.512 151.535 232.027 151.535H230.039V154.055ZM228.961 150.609H232.48C233.441 150.609 234.121 150.895 234.527 151.469 234.766 151.805 234.887 152.191 234.887 152.629 234.887 153.141 234.738 153.562 234.445 153.895 234.293 154.066 234.078 154.227 233.793 154.371 234.211 154.527 234.52 154.707 234.727 154.906 235.098 155.262 235.281 155.754 235.281 156.375 235.281 156.902 235.109 157.375 234.781 157.797 234.285 158.434 233.5 158.754 232.426 158.754H228.961V150.609" fill="#f0f5fb"/>
<path transform="matrix(1,0,0,1,-138.711,-25.682923)" d="M236.559 150.609H237.664V157.781H241.742V158.754H236.559V150.609" fill="#f0f5fb"/>
<path transform="matrix(1,0,0,1,-138.711,-25.682923)" d="M249.992 151.734C249.75 151.617 249.414 151.562 248.992 151.562H246.812V154.383H248.992C249.488 154.383 249.887 154.277 250.191 154.066 250.496 153.855 250.652 153.48 250.652 152.949 250.652 152.352 250.43 151.945 249.992 151.734ZM245.715 150.609H249.359C250.078 150.609 250.656 150.816 251.098 151.223 251.543 151.633 251.762 152.207 251.762 152.945 251.762 153.582 251.566 154.137 251.172 154.605 250.777 155.074 250.172 155.312 249.359 155.312H246.812V158.754H245.715V150.609" fill="#f0f5fb"/>
<path transform="matrix(1,0,0,1,-138.711,-25.682923)" d="M254.129 157.855C254.336 158.02 254.586 158.102 254.875 158.102 255.227 158.102 255.562 158.023 255.891 157.859 256.445 157.59 256.723 157.152 256.723 156.539V155.734C256.602 155.812 256.445 155.879 256.254 155.93 256.062 155.98 255.875 156.02 255.691 156.043L255.086 156.121C254.727 156.168 254.457 156.246 254.273 156.348 253.961 156.52 253.809 156.797 253.809 157.176 253.809 157.461 253.914 157.688 254.129 157.855ZM256.223 155.16C256.453 155.133 256.605 155.035 256.684 154.875 256.73 154.785 256.754 154.656 256.754 154.488 256.754 154.148 256.633 153.902 256.387 153.75 256.148 153.59 255.801 153.516 255.352 153.516 254.832 153.516 254.461 153.66 254.25 153.941 254.129 154.098 254.043 154.328 254.008 154.637H253.078C253.098 153.902 253.332 153.391 253.789 153.102 254.246 152.816 254.773 152.672 255.375 152.672 256.07 152.672 256.637 152.805 257.074 153.07 257.508 153.336 257.723 153.754 257.723 154.316V157.734C257.723 157.836 257.742 157.918 257.785 157.98 257.828 158.043 257.918 158.074 258.055 158.074 258.098 158.074 258.148 158.074 258.203 158.07 258.258 158.062 258.316 158.055 258.379 158.043V158.785C258.227 158.828 258.109 158.855 258.027 158.867 257.945 158.879 257.836 158.883 257.695 158.883 257.352 158.883 257.102 158.762 256.949 158.512 256.867 158.383 256.805 158.203 256.777 157.965 256.57 158.23 256.277 158.465 255.898 158.66 255.52 158.855 255.098 158.953 254.641 158.953 254.09 158.953 253.641 158.789 253.293 158.453 252.941 158.117 252.77 157.699 252.77 157.199 252.77 156.648 252.941 156.227 253.281 155.922 253.625 155.617 254.078 155.43 254.637 155.359L256.223 155.16" fill="#f0f5fb"/>
<path transform="matrix(1,0,0,1,-138.711,-25.682923)" d="M259.387 152.816H260.332V153.844C260.41 153.641 260.598 153.398 260.902 153.113 261.203 152.828 261.555 152.684 261.949 152.684 261.969 152.684 262 152.688 262.047 152.691 262.09 152.695 262.164 152.703 262.273 152.715V153.77C262.211 153.754 262.16 153.75 262.109 153.746 262.059 153.742 262.004 153.738 261.945 153.738 261.441 153.738 261.055 153.902 260.785 154.223 260.516 154.547 260.383 154.918 260.383 155.34V158.754H259.387V152.816" fill="#f0f5fb"/>
<path transform="matrix(1,0,0,1,-138.711,-25.682923)" d="M263.336 151.164H264.344V152.816H265.293V153.629H264.344V157.504C264.344 157.711 264.414 157.852 264.555 157.922 264.633 157.961 264.762 157.98 264.941 157.98 264.992 157.98 265.043 157.98 265.098 157.977 265.152 157.977 265.219 157.969 265.293 157.957V158.754C265.176 158.785 265.059 158.809 264.934 158.824 264.812 158.84 264.676 158.848 264.535 158.848 264.07 158.848 263.754 158.73 263.582 158.492 263.418 158.254 263.336 157.941 263.336 157.562V153.629H262.531V152.816H263.336V151.164" fill="#f0f5fb"/>
<path transform="matrix(1,0,0,1,-138.711,-25.682923)" d="M266.293 152.816H267.238V153.66C267.516 153.312 267.812 153.062 268.129 152.91 268.441 152.762 268.793 152.684 269.176 152.684 270.02 152.684 270.586 152.977 270.883 153.562 271.043 153.891 271.129 154.348 271.129 154.945V158.754H270.113V155.012C270.113 154.652 270.059 154.359 269.953 154.137 269.773 153.77 269.453 153.586 268.988 153.586 268.754 153.586 268.559 153.605 268.406 153.656 268.133 153.738 267.891 153.898 267.684 154.145 267.52 154.34 267.41 154.539 267.363 154.75 267.312 154.957 267.285 155.254 267.285 155.641V158.754H266.293V152.816" fill="#f0f5fb"/>
<path transform="matrix(1,0,0,1,-138.711,-25.682923)" d="M276.625 155.312C276.586 154.879 276.492 154.535 276.344 154.277 276.074 153.793 275.621 153.555 274.984 153.555 274.531 153.555 274.152 153.719 273.844 154.051 273.535 154.383 273.371 154.801 273.355 155.312ZM276.27 152.98C276.66 153.176 276.961 153.434 277.164 153.75 277.363 154.051 277.496 154.398 277.559 154.797 277.617 155.07 277.648 155.504 277.648 156.105H273.332C273.352 156.707 273.492 157.191 273.758 157.555 274.02 157.922 274.43 158.102 274.98 158.102 275.496 158.102 275.914 157.93 276.219 157.586 276.391 157.387 276.516 157.156 276.586 156.891H277.566C277.539 157.109 277.453 157.352 277.309 157.617 277.164 157.887 277 158.105 276.82 158.273 276.52 158.574 276.148 158.773 275.703 158.875 275.465 158.934 275.195 158.965 274.895 158.965 274.16 158.965 273.535 158.695 273.027 158.156 272.516 157.617 272.262 156.867 272.262 155.898 272.262 154.945 272.52 154.172 273.031 153.578 273.551 152.98 274.219 152.684 275.051 152.684 275.469 152.684 275.871 152.785 276.27 152.98" fill="#f0f5fb"/>
<path transform="matrix(1,0,0,1,-138.711,-25.682923)" d="M278.941 152.816H279.887V153.844C279.965 153.641 280.156 153.398 280.461 153.113 280.766 152.828 281.113 152.684 281.508 152.684 281.527 152.684 281.555 152.688 281.602 152.691 281.645 152.695 281.723 152.703 281.828 152.715V153.77C281.77 153.754 281.715 153.75 281.664 153.746 281.613 153.742 281.559 153.738 281.5 153.738 281 153.738 280.613 153.902 280.34 154.223 280.07 154.547 279.938 154.918 279.938 155.34V158.754H278.941V152.816" fill="#f0f5fb"/>
<path transform="matrix(1,0,0,1,-138.711,-25.682923)" d="M283.285 156.891C283.316 157.223 283.402 157.477 283.539 157.656 283.797 157.977 284.242 158.137 284.875 158.137 285.254 158.137 285.586 158.055 285.871 157.895 286.156 157.734 286.301 157.488 286.301 157.152 286.301 156.898 286.188 156.703 285.957 156.57 285.812 156.488 285.52 156.395 285.086 156.289L284.285 156.09C283.77 155.965 283.391 155.82 283.148 155.664 282.715 155.395 282.492 155.023 282.492 154.547 282.492 153.988 282.695 153.531 283.109 153.184 283.52 152.836 284.07 152.664 284.762 152.664 285.668 152.664 286.32 152.926 286.723 153.453 286.973 153.785 287.094 154.141 287.086 154.523H286.145C286.125 154.301 286.047 154.098 285.902 153.914 285.668 153.652 285.262 153.52 284.68 153.52 284.297 153.52 284.004 153.59 283.805 153.738 283.605 153.883 283.508 154.07 283.508 154.305 283.508 154.562 283.637 154.77 283.898 154.926 284.051 155.016 284.27 155.098 284.562 155.168L285.234 155.328C285.969 155.5 286.457 155.668 286.703 155.836 287.09 156.09 287.285 156.488 287.285 157.035 287.285 157.562 287.082 158.02 286.676 158.406 286.273 158.789 285.656 158.98 284.824 158.98 283.93 158.98 283.297 158.781 282.926 158.379 282.551 157.977 282.352 157.48 282.324 156.891H283.285" fill="#f0f5fb"/>
<path transform="matrix(1,0,0,1,-138.711,-25.682923)" d="M288.367 150.582H289.363V153.625C289.602 153.32 289.812 153.109 290 152.988 290.324 152.777 290.727 152.672 291.203 152.672 292.062 152.672 292.648 152.973 292.957 153.578 293.121 153.906 293.207 154.363 293.207 154.945V158.754H292.18V155.012C292.18 154.578 292.125 154.258 292.012 154.055 291.832 153.73 291.492 153.562 290.996 153.562 290.582 153.562 290.203 153.711 289.867 153.992 289.531 154.277 289.363 154.816 289.363 155.605V158.754H288.367V150.582" fill="#f0f5fb"/>
<path transform="matrix(1,0,0,1,-138.711,-25.682923)" d="M294.676 152.844H295.695V158.754H294.676ZM294.676 150.609H295.695V151.742H294.676V150.609" fill="#f0f5fb"/>
<path transform="matrix(1,0,0,1,-138.711,-25.682923)" d="M300.871 157.496C301.18 157.109 301.332 156.527 301.332 155.746 301.332 155.277 301.266 154.871 301.129 154.531 300.871 153.875 300.395 153.547 299.703 153.547 299.012 153.547 298.539 153.895 298.281 154.586 298.145 154.953 298.078 155.422 298.078 155.996 298.078 156.453 298.145 156.84 298.281 157.164 298.543 157.773 299.016 158.082 299.703 158.082 300.172 158.082 300.562 157.887 300.871 157.496ZM297.117 152.844H298.094V153.629C298.293 153.359 298.512 153.152 298.746 153.004 299.086 152.785 299.48 152.672 299.938 152.672 300.613 152.672 301.184 152.93 301.652 153.445 302.121 153.965 302.359 154.699 302.359 155.652 302.359 156.949 302.02 157.871 301.34 158.426 300.91 158.777 300.41 158.953 299.836 158.953 299.391 158.953 299.012 158.855 298.711 158.66 298.531 158.551 298.336 158.355 298.117 158.086V161.121H297.117V152.844" fill="#f0f5fb"/>
<path transform="matrix(1,0,0,1,-138.711,-25.682923)" d="M307.129 151.004C307.363 150.664 307.812 150.496 308.477 150.496 308.539 150.496 308.605 150.496 308.672 150.504 308.738 150.508 308.812 150.512 308.898 150.52V151.43C308.793 151.422 308.719 151.418 308.672 151.414 308.625 151.414 308.578 151.414 308.539 151.414 308.234 151.414 308.051 151.492 307.992 151.648 307.93 151.805 307.902 152.203 307.902 152.848H308.898V153.633H307.902V158.758H306.918V153.633H306.09V152.848H306.918V151.918C306.93 151.504 307.004 151.203 307.129 151.004" fill="#f0f5fb"/>
<path transform="matrix(1,0,0,1,-138.711,-25.682923)" d="M313.5 157.355C313.742 156.855 313.863 156.301 313.863 155.684 313.863 155.133 313.773 154.684 313.602 154.336 313.32 153.789 312.844 153.516 312.168 153.516 311.562 153.516 311.121 153.75 310.852 154.215 310.574 154.68 310.438 155.238 310.438 155.895 310.438 156.527 310.574 157.055 310.852 157.473 311.121 157.895 311.559 158.102 312.156 158.102 312.809 158.102 313.258 157.855 313.5 157.355ZM314.117 153.414C314.645 153.922 314.906 154.668 314.906 155.656 314.906 156.613 314.676 157.402 314.215 158.027 313.75 158.652 313.031 158.965 312.062 158.965 311.25 158.965 310.605 158.688 310.129 158.133 309.652 157.582 309.414 156.844 309.414 155.914 309.414 154.914 309.668 154.125 310.168 153.535 310.672 152.941 311.344 152.645 312.195 152.645 312.953 152.645 313.594 152.898 314.117 153.414" fill="#f0f5fb"/>
<path transform="matrix(1,0,0,1,-138.711,-25.682923)" d="M316.156 152.816H317.105V153.844C317.184 153.641 317.375 153.398 317.676 153.113 317.98 152.828 318.328 152.684 318.727 152.684 318.746 152.684 318.773 152.688 318.816 152.691 318.859 152.695 318.941 152.703 319.047 152.715V153.77C318.984 153.754 318.934 153.75 318.879 153.746 318.832 153.742 318.777 153.738 318.719 153.738 318.215 153.738 317.832 153.902 317.562 154.223 317.293 154.547 317.156 154.918 317.156 155.34V158.754H316.156V152.816" fill="#f0f5fb"/>
<path transform="matrix(1,0,0,1,-138.711,-25.682923)" d="M323.168 150.609H324.75L327.09 157.496 329.414 150.609H330.984V158.754H329.93V153.949C329.93 153.785 329.934 153.504 329.941 153.121 329.945 152.738 329.953 152.328 329.953 151.887L327.625 158.754H326.531L324.188 151.887V152.137C324.188 152.336 324.191 152.641 324.203 153.047 324.211 153.457 324.219 153.754 324.219 153.949V158.754H323.164V150.609" fill="#f0f5fb"/>
<path transform="matrix(1,0,0,1,-138.711,-25.682923)" d="M336.199 157.355C336.441 156.855 336.562 156.301 336.562 155.684 336.562 155.133 336.477 154.684 336.301 154.336 336.023 153.789 335.547 153.516 334.863 153.516 334.262 153.516 333.824 153.75 333.551 154.215 333.277 154.68 333.137 155.238 333.137 155.895 333.137 156.527 333.277 157.055 333.551 157.473 333.824 157.895 334.258 158.102 334.852 158.102 335.508 158.102 335.957 157.855 336.199 157.355ZM336.816 153.414C337.34 153.922 337.605 154.668 337.605 155.656 337.605 156.613 337.371 157.402 336.91 158.027 336.449 158.652 335.734 158.965 334.758 158.965 333.949 158.965 333.305 158.688 332.828 158.133 332.352 157.582 332.113 156.844 332.113 155.914 332.113 154.914 332.363 154.125 332.867 153.535 333.371 152.941 334.047 152.645 334.891 152.645 335.648 152.645 336.293 152.898 336.816 153.414" fill="#f0f5fb"/>
<path transform="matrix(1,0,0,1,-138.711,-25.682923)" d="M338.859 150.609H339.851V158.754H338.859Z" fill="#f0f5fb"/>
<path transform="matrix(1,0,0,1,-138.711,-25.682923)" d="M345.375 155.312C345.336 154.879 345.238 154.535 345.09 154.277 344.82 153.793 344.367 153.555 343.738 153.555 343.285 153.555 342.898 153.719 342.594 154.051 342.285 154.383 342.121 154.801 342.105 155.312ZM345.02 152.98C345.41 153.176 345.711 153.434 345.914 153.75 346.113 154.051 346.246 154.398 346.312 154.797 346.371 155.07 346.398 155.504 346.398 156.105H342.082C342.102 156.707 342.242 157.191 342.504 157.555 342.77 157.922 343.18 158.102 343.73 158.102 344.25 158.102 344.66 157.93 344.969 157.586 345.145 157.387 345.266 157.156 345.336 156.891H346.316C346.289 157.109 346.203 157.352 346.059 157.617 345.914 157.887 345.75 158.105 345.57 158.273 345.273 158.574 344.895 158.773 344.453 158.875 344.215 158.934 343.945 158.965 343.645 158.965 342.914 158.965 342.285 158.695 341.777 158.156 341.27 157.617 341.012 156.867 341.012 155.898 341.012 154.945 341.27 154.172 341.785 153.578 342.297 152.98 342.973 152.684 343.801 152.684 344.219 152.684 344.621 152.785 345.02 152.98" fill="#f0f5fb"/>
<path transform="matrix(1,0,0,1,-138.711,-25.682923)" d="M351.582 153.133C352 153.461 352.254 154.02 352.34 154.812H351.371C351.309 154.449 351.176 154.145 350.965 153.902 350.754 153.66 350.418 153.539 349.949 153.539 349.316 153.539 348.863 153.852 348.59 154.469 348.41 154.871 348.324 155.367 348.324 155.961 348.324 156.551 348.449 157.051 348.699 157.457 348.949 157.863 349.344 158.062 349.883 158.062 350.301 158.062 350.625 157.938 350.867 157.688 351.109 157.434 351.277 157.09 351.371 156.652H352.34C352.227 157.438 351.949 158.012 351.508 158.379 351.066 158.746 350.5 158.926 349.805 158.926 349.031 158.926 348.414 158.645 347.953 158.074 347.488 157.508 347.258 156.801 347.258 155.949 347.258 154.906 347.508 154.098 348.02 153.516 348.523 152.934 349.168 152.645 349.949 152.645 350.621 152.645 351.164 152.809 351.582 153.133" fill="#f0f5fb"/>
<path transform="matrix(1,0,0,1,-138.711,-25.682923)" d="M354.332 152.816V156.758C354.332 157.062 354.379 157.309 354.473 157.5 354.645 157.855 354.973 158.031 355.441 158.031 356.117 158.031 356.578 157.723 356.82 157.102 356.957 156.77 357.02 156.312 357.02 155.73V152.816H358.02V158.754H357.082L357.086 157.875C356.961 158.102 356.801 158.297 356.613 158.449 356.242 158.762 355.789 158.914 355.254 158.914 354.426 158.914 353.859 158.633 353.559 158.062 353.395 157.762 353.316 157.359 353.316 156.852V152.816H354.332" fill="#f0f5fb"/>
<path transform="matrix(1,0,0,1,-138.711,-25.682923)" d="M359.676 150.609H360.676V158.754H359.676Z" fill="#f0f5fb"/>
<path transform="matrix(1,0,0,1,-138.711,-25.682923)" d="M363.25 157.855C363.461 158.02 363.711 158.102 364 158.102 364.348 158.102 364.691 158.023 365.02 157.859 365.574 157.59 365.852 157.152 365.852 156.539V155.734C365.727 155.812 365.57 155.879 365.379 155.93 365.191 155.98 365 156.02 364.816 156.043L364.215 156.121C363.852 156.168 363.582 156.246 363.398 156.348 363.09 156.52 362.938 156.797 362.938 157.176 362.938 157.461 363.039 157.688 363.25 157.855ZM365.352 155.16C365.582 155.133 365.734 155.035 365.812 154.875 365.855 154.785 365.879 154.656 365.879 154.488 365.879 154.148 365.758 153.902 365.516 153.75 365.273 153.59 364.93 153.516 364.48 153.516 363.957 153.516 363.59 153.66 363.371 153.941 363.25 154.098 363.172 154.328 363.133 154.637H362.203C362.223 153.902 362.461 153.391 362.914 153.102 363.371 152.816 363.898 152.672 364.504 152.672 365.199 152.672 365.766 152.805 366.199 153.07 366.633 153.336 366.848 153.754 366.848 154.316V157.734C366.848 157.836 366.867 157.918 366.914 157.98 366.953 158.043 367.047 158.074 367.18 158.074 367.227 158.074 367.277 158.074 367.332 158.07 367.387 158.062 367.445 158.055 367.508 158.043V158.785C367.352 158.828 367.234 158.855 367.152 158.867 367.07 158.879 366.961 158.883 366.824 158.883 366.477 158.883 366.227 158.762 366.07 158.512 365.988 158.383 365.934 158.203 365.898 157.965 365.695 158.23 365.406 158.465 365.023 158.66 364.645 158.855 364.223 158.953 363.766 158.953 363.215 158.953 362.766 158.789 362.418 158.453 362.07 158.117 361.891 157.699 361.891 157.199 361.891 156.648 362.066 156.227 362.41 155.922 362.754 155.617 363.203 155.43 363.762 155.359L365.352 155.16" fill="#f0f5fb"/>
<path transform="matrix(1,0,0,1,-138.711,-25.682923)" d="M368.508 152.816H369.461V153.844C369.535 153.641 369.727 153.398 370.031 153.113 370.332 152.828 370.68 152.684 371.074 152.684 371.094 152.684 371.125 152.688 371.168 152.691 371.215 152.695 371.289 152.703 371.398 152.715V153.77C371.336 153.754 371.281 153.75 371.234 153.746 371.184 153.742 371.129 153.738 371.07 153.738 370.566 153.738 370.184 153.902 369.914 154.223 369.645 154.547 369.508 154.918 369.508 155.34V158.754H368.508V152.816" fill="#f0f5fb"/>
<path transform="matrix(1,0,0,1,-138.711,-25.682923)" d="M375.52 150.609H377.102L379.441 157.496 381.766 150.609H383.336V158.754H382.281V153.949C382.281 153.785 382.285 153.504 382.293 153.121 382.301 152.738 382.301 152.328 382.301 151.887L379.977 158.754H378.887L376.539 151.887V152.137C376.539 152.336 376.547 152.641 376.555 153.047 376.566 153.457 376.574 153.754 376.574 153.949V158.754H375.523V150.609" fill="#f0f5fb"/>
<path transform="matrix(1,0,0,1,-138.711,-25.682923)" d="M388.895 155.312C388.855 154.879 388.762 154.535 388.613 154.277 388.344 153.793 387.891 153.555 387.258 153.555 386.801 153.555 386.422 153.719 386.113 154.051 385.805 154.383 385.641 154.801 385.625 155.312ZM388.539 152.98C388.93 153.176 389.23 153.434 389.434 153.75 389.633 154.051 389.762 154.398 389.832 154.797 389.887 155.07 389.918 155.504 389.918 156.105H385.602C385.621 156.707 385.758 157.191 386.027 157.555 386.289 157.922 386.699 158.102 387.254 158.102 387.77 158.102 388.18 157.93 388.488 157.586 388.664 157.387 388.785 157.156 388.855 156.891H389.836C389.809 157.109 389.723 157.352 389.578 157.617 389.434 157.887 389.27 158.105 389.09 158.273 388.789 158.574 388.418 158.773 387.973 158.875 387.734 158.934 387.465 158.965 387.164 158.965 386.434 158.965 385.809 158.695 385.297 158.156 384.789 157.617 384.531 156.867 384.531 155.898 384.531 154.945 384.789 154.172 385.301 153.578 385.816 152.98 386.492 152.684 387.32 152.684 387.738 152.684 388.141 152.785 388.539 152.98" fill="#f0f5fb"/>
<path transform="matrix(1,0,0,1,-138.711,-25.682923)" d="M392.215 157.449C392.484 157.879 392.91 158.094 393.508 158.094 393.965 158.094 394.344 157.895 394.641 157.496 394.934 157.102 395.082 156.531 395.082 155.785 395.082 155.039 394.93 154.484 394.625 154.125 394.32 153.766 393.945 153.586 393.496 153.586 392.996 153.586 392.59 153.777 392.277 154.16 391.969 154.543 391.812 155.109 391.812 155.852 391.812 156.492 391.949 157.023 392.215 157.449ZM394.441 153C394.617 153.109 394.82 153.305 395.043 153.586V150.582H396.004V158.754H395.109V157.926C394.871 158.297 394.598 158.555 394.281 158.723 393.965 158.883 393.605 158.965 393.195 158.965 392.535 158.965 391.965 158.688 391.484 158.133 391.004 157.574 390.762 156.836 390.762 155.914 390.762 155.047 390.98 154.297 391.422 153.664 391.859 153.027 392.488 152.711 393.305 152.711 393.758 152.711 394.137 152.809 394.441 153" fill="#f0f5fb"/>
<path transform="matrix(1,0,0,1,-138.711,-25.682923)" d="M397.492 152.844H398.508V158.754H397.492ZM397.492 150.613H398.508V151.742H397.492V150.613" fill="#f0f5fb"/>
<path transform="matrix(1,0,0,1,-138.711,-25.682923)" d="M403.934 153.133C404.352 153.461 404.605 154.02 404.691 154.812H403.723C403.664 154.449 403.527 154.145 403.32 153.902 403.109 153.66 402.77 153.539 402.301 153.539 401.668 153.539 401.215 153.852 400.941 154.469 400.766 154.871 400.676 155.367 400.676 155.961 400.676 156.551 400.801 157.051 401.051 157.457 401.301 157.863 401.695 158.062 402.234 158.062 402.652 158.062 402.98 157.938 403.223 157.688 403.461 157.434 403.629 157.09 403.723 156.652H404.691C404.582 157.438 404.305 158.012 403.859 158.379 403.418 158.746 402.852 158.926 402.156 158.926 401.383 158.926 400.766 158.645 400.305 158.074 399.84 157.508 399.609 156.801 399.609 155.949 399.609 154.906 399.859 154.098 400.371 153.516 400.875 152.934 401.52 152.645 402.301 152.645 402.973 152.645 403.516 152.809 403.934 153.133" fill="#f0f5fb"/>
<path transform="matrix(1,0,0,1,-138.711,-25.682923)" d="M405.691 152.844H406.703V158.754H405.691ZM405.691 150.613H406.703V151.742H405.691V150.613" fill="#f0f5fb"/>
<path transform="matrix(1,0,0,1,-138.711,-25.682923)" d="M408.211 152.816H409.16V153.66C409.438 153.312 409.738 153.062 410.055 152.91 410.367 152.762 410.715 152.684 411.098 152.684 411.941 152.684 412.512 152.977 412.805 153.562 412.969 153.891 413.051 154.348 413.051 154.945V158.754H412.039V155.012C412.039 154.652 411.98 154.359 411.871 154.137 411.695 153.77 411.375 153.586 410.91 153.586 410.672 153.586 410.48 153.605 410.328 153.656 410.055 153.738 409.816 153.898 409.605 154.145 409.441 154.34 409.332 154.539 409.281 154.75 409.234 154.957 409.207 155.254 409.207 155.641V158.754H408.211V152.816" fill="#f0f5fb"/>
<path transform="matrix(1,0,0,1,-138.711,-25.682923)" d="M418.547 155.312C418.504 154.879 418.414 154.535 418.266 154.277 417.996 153.793 417.543 153.555 416.91 153.555 416.453 153.555 416.074 153.719 415.766 154.051 415.461 154.383 415.297 154.801 415.277 155.312ZM418.191 152.98C418.582 153.176 418.879 153.434 419.086 153.75 419.289 154.051 419.418 154.398 419.484 154.797 419.543 155.07 419.574 155.504 419.574 156.105H415.254C415.277 156.707 415.414 157.191 415.68 157.555 415.941 157.922 416.352 158.102 416.902 158.102 417.422 158.102 417.832 157.93 418.141 157.586 418.312 157.387 418.438 157.156 418.508 156.891H419.492C419.461 157.109 419.379 157.352 419.23 157.617 419.086 157.887 418.922 158.105 418.742 158.273 418.441 158.574 418.07 158.773 417.629 158.875 417.391 158.934 417.117 158.965 416.816 158.965 416.082 158.965 415.461 158.695 414.953 158.156 414.438 157.617 414.184 156.867 414.184 155.898 414.184 154.945 414.438 154.172 414.957 153.578 415.469 152.98 416.141 152.684 416.973 152.684 417.391 152.684 417.797 152.785 418.191 152.98" fill="#f0f5fb"/>
<path transform="matrix(1,0,0,1,-138.711,-25.682923)" d="M176.086 142.887V133.008H179.07L180.863 139.746 182.633 133.008H185.629V142.887H183.773V135.109L181.812 142.887H179.891L177.941 135.109V142.887H176.086" fill="#f0f5fb"/>
<path transform="matrix(1,0,0,1,-138.711,-25.682923)" d="M189.098 139.309C189.098 140.016 189.266 140.559 189.605 140.938 189.941 141.312 190.355 141.504 190.848 141.504 191.344 141.504 191.758 141.312 192.094 140.938 192.43 140.559 192.598 140.012 192.598 139.297 192.598 138.594 192.43 138.055 192.094 137.676 191.758 137.301 191.344 137.113 190.848 137.113 190.355 137.113 189.941 137.301 189.605 137.676 189.266 138.055 189.098 138.598 189.098 139.309ZM187.156 139.203C187.156 138.578 187.309 137.969 187.625 137.383 187.934 136.793 188.371 136.34 188.938 136.031 189.504 135.723 190.145 135.566 190.844 135.566 191.922 135.566 192.812 135.918 193.504 136.621 194.195 137.328 194.543 138.215 194.543 139.289 194.543 140.371 194.195 141.266 193.492 141.98 192.797 142.691 191.914 143.047 190.855 143.047 190.203 143.047 189.574 142.898 188.98 142.602 188.383 142.305 187.934 141.871 187.625 141.297 187.309 140.727 187.156 140.027 187.156 139.203" fill="#f0f5fb"/>
<path transform="matrix(1,0,0,1,-138.711,-25.682923)" d="M196.023 133.008H197.918V142.887H196.023Z" fill="#f0f5fb"/>
<path transform="matrix(1,0,0,1,-138.711,-25.682923)" d="M204.113 138.691C204.094 138.145 203.957 137.73 203.684 137.445 203.414 137.16 203.086 137.016 202.703 137.016 202.289 137.016 201.949 137.168 201.676 137.469 201.41 137.77 201.273 138.176 201.277 138.691ZM204.004 140.605 205.887 140.922C205.645 141.613 205.262 142.145 204.742 142.504 204.219 142.867 203.562 143.047 202.777 143.047 201.535 143.047 200.609 142.641 200.016 141.828 199.543 141.176 199.309 140.355 199.309 139.359 199.309 138.176 199.617 137.246 200.234 136.574 200.855 135.902 201.637 135.566 202.586 135.566 203.652 135.566 204.492 135.918 205.109 136.621 205.723 137.324 206.016 138.402 205.988 139.855H201.246C201.258 140.414 201.414 140.852 201.707 141.164 201.996 141.477 202.359 141.633 202.797 141.633 203.094 141.633 203.34 141.555 203.543 141.387 203.75 141.227 203.898 140.965 204.004 140.605" fill="#f0f5fb"/>
<path transform="matrix(1,0,0,1,-138.711,-25.682923)" d="M213.77 137.844 211.906 138.18C211.844 137.809 211.703 137.527 211.48 137.34 211.258 137.152 210.969 137.059 210.613 137.059 210.141 137.059 209.766 137.223 209.484 137.547 209.203 137.871 209.062 138.414 209.062 139.18 209.062 140.027 209.207 140.629 209.492 140.977 209.777 141.328 210.16 141.504 210.637 141.504 210.996 141.504 211.297 141.398 211.523 141.195 211.754 140.992 211.914 140.641 212.008 140.145L213.867 140.461C213.676 141.312 213.301 141.957 212.754 142.395 212.207 142.828 211.473 143.047 210.551 143.047 209.508 143.047 208.672 142.715 208.047 142.059 207.426 141.398 207.117 140.48 207.117 139.312 207.117 138.133 207.43 137.215 208.051 136.559 208.676 135.895 209.523 135.566 210.586 135.566 211.457 135.566 212.148 135.754 212.664 136.129 213.176 136.504 213.551 137.078 213.77 137.844" fill="#f0f5fb"/>
<path transform="matrix(1,0,0,1,-138.711,-25.682923)" d="M219.918 142.887V141.816C219.656 142.195 219.316 142.496 218.891 142.715 218.469 142.938 218.016 143.047 217.547 143.047 217.066 143.047 216.637 142.941 216.254 142.73 215.867 142.52 215.594 142.223 215.422 141.844 215.25 141.457 215.168 140.93 215.168 140.258V135.73H217.062V139.02C217.062 140.023 217.098 140.641 217.164 140.867 217.234 141.094 217.363 141.273 217.547 141.406 217.73 141.535 217.961 141.605 218.246 141.605 218.57 141.605 218.859 141.52 219.117 141.336 219.371 141.16 219.547 140.941 219.641 140.68 219.734 140.414 219.781 139.773 219.781 138.746V135.73H221.676V142.887H219.918" fill="#f0f5fb"/>
<path transform="matrix(1,0,0,1,-138.711,-25.682923)" d="M223.637 133.008H225.532V142.887H223.637Z" fill="#f0f5fb"/>
<path transform="matrix(1,0,0,1,-138.711,-25.682923)" d="M231.422 139.449C231.18 139.531 230.793 139.629 230.266 139.738 229.742 139.852 229.398 139.961 229.238 140.07 228.988 140.242 228.867 140.465 228.867 140.734 228.867 141 228.965 141.227 229.164 141.422 229.359 141.613 229.609 141.715 229.918 141.715 230.258 141.715 230.586 141.602 230.895 141.375 231.125 141.203 231.273 140.996 231.348 140.75 231.395 140.586 231.422 140.281 231.422 139.828ZM228.887 137.914 227.168 137.602C227.359 136.914 227.691 136.398 228.168 136.066 228.637 135.734 229.336 135.566 230.266 135.566 231.113 135.566 231.742 135.668 232.152 135.867 232.566 136.066 232.859 136.32 233.027 136.629 233.195 136.934 233.281 137.504 233.281 138.324L233.262 140.535C233.262 141.16 233.289 141.625 233.352 141.926 233.41 142.227 233.523 142.543 233.691 142.887H231.816C231.766 142.758 231.707 142.574 231.633 142.328 231.602 142.215 231.582 142.141 231.566 142.105 231.246 142.418 230.898 142.652 230.531 142.812 230.16 142.969 229.766 143.047 229.352 143.047 228.613 143.047 228.035 142.848 227.609 142.449 227.184 142.047 226.973 141.539 226.973 140.93 226.973 140.527 227.066 140.168 227.262 139.852 227.453 139.535 227.723 139.293 228.074 139.121 228.422 138.953 228.926 138.805 229.578 138.68 230.461 138.512 231.078 138.359 231.418 138.215V138.027C231.418 137.664 231.328 137.406 231.148 137.25 230.973 137.094 230.629 137.016 230.129 137.016 229.793 137.016 229.531 137.082 229.344 137.215 229.156 137.348 229.004 137.582 228.887 137.914" fill="#f0f5fb"/>
<path transform="matrix(1,0,0,1,-138.711,-25.682923)" d="M236.957 142.887H235.062V135.73H236.824V136.746C237.125 136.266 237.395 135.949 237.637 135.797 237.879 135.645 238.148 135.566 238.453 135.566 238.887 135.566 239.301 135.688 239.699 135.926L239.113 137.578C238.797 137.371 238.5 137.266 238.227 137.266 237.961 137.266 237.738 137.34 237.555 137.484 237.367 137.629 237.223 137.895 237.117 138.277 237.012 138.656 236.957 139.461 236.957 140.676V142.887" fill="#f0f5fb"/>
<path transform="matrix(1,0,0,1,-138.711,-25.682923)" d="M244.301 133.008H246.297V142.887H244.301Z" fill="#f0f5fb"/>
<path transform="matrix(1,0,0,1,-138.711,-25.682923)" d="M254.695 142.887H252.801V139.23C252.801 138.461 252.762 137.961 252.68 137.734 252.598 137.508 252.469 137.332 252.285 137.207 252.105 137.082 251.883 137.016 251.625 137.016 251.297 137.016 251.004 137.109 250.746 137.289 250.484 137.465 250.305 137.703 250.211 138 250.113 138.297 250.066 138.844 250.066 139.645V142.887H248.172V135.73H249.93V136.777C250.555 135.973 251.34 135.566 252.289 135.566 252.707 135.566 253.086 135.645 253.434 135.793 253.777 135.945 254.043 136.137 254.215 136.367 254.398 136.602 254.52 136.871 254.59 137.164 254.66 137.461 254.695 137.887 254.695 138.438V142.887" fill="#f0f5fb"/>
<path transform="matrix(1,0,0,1,-138.711,-25.682923)" d="M255.785 135.73H256.84V135.191C256.84 134.59 256.902 134.137 257.031 133.84 257.156 133.547 257.395 133.305 257.734 133.117 258.078 132.934 258.512 132.84 259.043 132.84 259.578 132.84 260.105 132.918 260.621 133.082L260.367 134.398C260.066 134.328 259.777 134.297 259.5 134.297 259.223 134.297 259.023 134.355 258.906 134.484 258.789 134.617 258.727 134.859 258.727 135.223V135.73H260.145V137.219H258.727V142.887H256.84V137.219H255.785V135.73" fill="#f0f5fb"/>
<path transform="matrix(1,0,0,1,-138.711,-25.682923)" d="M265.461 138.691C265.445 138.145 265.305 137.73 265.035 137.445 264.766 137.16 264.441 137.016 264.055 137.016 263.641 137.016 263.297 137.168 263.027 137.469 262.758 137.77 262.625 138.176 262.633 138.691ZM265.352 140.605 267.238 140.922C266.996 141.613 266.617 142.145 266.09 142.504 265.566 142.867 264.914 143.047 264.129 143.047 262.883 143.047 261.961 142.641 261.363 141.828 260.891 141.176 260.656 140.355 260.656 139.359 260.656 138.176 260.965 137.246 261.59 136.574 262.207 135.902 262.988 135.566 263.938 135.566 265.004 135.566 265.84 135.918 266.461 136.621 267.074 137.324 267.367 138.402 267.34 139.855H262.598C262.609 140.414 262.762 140.852 263.055 141.164 263.348 141.477 263.715 141.633 264.148 141.633 264.445 141.633 264.695 141.555 264.895 141.387 265.098 141.227 265.25 140.965 265.352 140.605" fill="#f0f5fb"/>
<path transform="matrix(1,0,0,1,-138.711,-25.682923)" d="M275.121 137.844 273.254 138.18C273.195 137.809 273.051 137.527 272.828 137.34 272.605 137.152 272.316 137.059 271.965 137.059 271.492 137.059 271.113 137.223 270.832 137.547 270.555 137.871 270.414 138.414 270.414 139.18 270.414 140.027 270.555 140.629 270.84 140.977 271.129 141.328 271.512 141.504 271.992 141.504 272.348 141.504 272.645 141.398 272.871 141.195 273.102 140.992 273.262 140.641 273.359 140.145L275.219 140.461C275.023 141.312 274.652 141.957 274.105 142.395 273.559 142.828 272.824 143.047 271.902 143.047 270.859 143.047 270.02 142.715 269.398 142.059 268.773 141.398 268.465 140.48 268.465 139.312 268.465 138.133 268.777 137.215 269.402 136.559 270.027 135.895 270.871 135.566 271.938 135.566 272.809 135.566 273.5 135.754 274.016 136.129 274.531 136.504 274.898 137.078 275.121 137.844" fill="#f0f5fb"/>
<path transform="matrix(1,0,0,1,-138.711,-25.682923)" d="M279.84 135.73V137.238H278.547V140.121C278.547 140.707 278.559 141.047 278.586 141.141 278.609 141.238 278.664 141.316 278.754 141.383 278.84 141.445 278.945 141.48 279.074 141.48 279.246 141.48 279.5 141.414 279.832 141.293L279.996 142.766C279.555 142.953 279.059 143.047 278.5 143.047 278.16 143.047 277.848 142.988 277.574 142.875 277.301 142.762 277.102 142.613 276.973 142.43 276.844 142.25 276.758 142.004 276.707 141.691 276.668 141.469 276.648 141.027 276.648 140.359V137.238H275.777V135.73H276.648V134.305L278.547 133.203V135.73H279.84" fill="#f0f5fb"/>
<path transform="matrix(1,0,0,1,-138.711,-25.682923)" d="M281.156 142.887V135.73H283.047V142.887ZM281.156 134.762V133.008H283.047V134.762H281.156" fill="#f0f5fb"/>
<path transform="matrix(1,0,0,1,-138.711,-25.682923)" d="M286.492 139.309C286.492 140.016 286.66 140.559 286.996 140.938 287.332 141.312 287.75 141.504 288.242 141.504 288.738 141.504 289.152 141.312 289.484 140.938 289.82 140.559 289.984 140.012 289.984 139.297 289.984 138.594 289.82 138.055 289.484 137.676 289.152 137.301 288.738 137.113 288.242 137.113 287.75 137.113 287.332 137.301 286.996 137.676 286.66 138.055 286.492 138.598 286.492 139.309ZM284.551 139.203C284.551 138.578 284.703 137.969 285.016 137.383 285.324 136.793 285.766 136.34 286.332 136.031 286.898 135.723 287.535 135.566 288.238 135.566 289.316 135.566 290.207 135.918 290.898 136.621 291.59 137.328 291.934 138.215 291.934 139.289 291.934 140.371 291.586 141.266 290.887 141.98 290.188 142.691 289.309 143.047 288.25 143.047 287.598 143.047 286.969 142.898 286.375 142.602 285.777 142.305 285.324 141.871 285.016 141.297 284.703 140.727 284.551 140.027 284.551 139.203" fill="#f0f5fb"/>
<path transform="matrix(1,0,0,1,-138.711,-25.682923)" d="M299.93 142.887H298.035V139.23C298.035 138.461 297.992 137.961 297.914 137.734 297.832 137.508 297.699 137.332 297.52 137.207 297.332 137.082 297.113 137.016 296.859 137.016 296.531 137.016 296.238 137.109 295.977 137.289 295.719 137.465 295.539 137.703 295.445 138 295.348 138.297 295.297 138.844 295.297 139.645V142.887H293.406V135.73H295.164V136.777C295.789 135.973 296.574 135.566 297.523 135.566 297.941 135.566 298.32 135.645 298.668 135.793 299.012 135.945 299.273 136.137 299.453 136.367 299.629 136.602 299.75 136.871 299.824 137.164 299.895 137.461 299.93 137.887 299.93 138.438V142.887" fill="#f0f5fb"/>
<path transform="matrix(1,0,0,1,-138.711,-25.682923)" d="M305.668 142.887V133.008H308.652L310.445 139.746 312.219 133.008H315.207V142.887H313.355V135.109L311.395 142.887H309.473L307.523 135.109V142.887H305.668" fill="#f0f5fb"/>
<path transform="matrix(1,0,0,1,-138.711,-25.682923)" d="M321.43 138.691C321.418 138.145 321.273 137.73 321 137.445 320.73 137.16 320.406 137.016 320.02 137.016 319.605 137.016 319.266 137.168 318.992 137.469 318.73 137.77 318.594 138.176 318.598 138.691ZM321.32 140.605 323.207 140.922C322.965 141.613 322.582 142.145 322.059 142.504 321.535 142.867 320.879 143.047 320.094 143.047 318.852 143.047 317.93 142.641 317.332 141.828 316.859 141.176 316.625 140.355 316.625 139.359 316.625 138.176 316.934 137.246 317.555 136.574 318.172 135.902 318.961 135.566 319.906 135.566 320.969 135.566 321.812 135.918 322.426 136.621 323.039 137.324 323.332 138.402 323.305 139.855H318.562C318.578 140.414 318.734 140.852 319.023 141.164 319.316 141.477 319.68 141.633 320.113 141.633 320.41 141.633 320.66 141.555 320.859 141.387 321.066 141.227 321.215 140.965 321.32 140.605" fill="#f0f5fb"/>
<path transform="matrix(1,0,0,1,-138.711,-25.682923)" d="M326.363 139.148C326.363 139.918 326.469 140.469 326.68 140.809 326.984 141.301 327.41 141.555 327.957 141.555 328.391 141.555 328.766 141.363 329.07 140.992 329.375 140.625 329.527 140.07 329.527 139.336 329.527 138.512 329.379 137.922 329.082 137.559 328.789 137.199 328.406 137.016 327.941 137.016 327.492 137.016 327.117 137.195 326.816 137.551 326.516 137.91 326.363 138.441 326.363 139.148ZM331.414 142.887H329.656V141.836C329.363 142.242 329.02 142.547 328.621 142.746 328.223 142.945 327.82 143.047 327.418 143.047 326.598 143.047 325.891 142.715 325.305 142.055 324.719 141.391 324.43 140.465 324.43 139.277 324.43 138.066 324.711 137.148 325.281 136.512 325.852 135.883 326.574 135.566 327.445 135.566 328.246 135.566 328.938 135.898 329.52 136.562V133.008H331.414V142.887" fill="#f0f5fb"/>
<path transform="matrix(1,0,0,1,-138.711,-25.682923)" d="M333.281 142.887V135.73H335.172V142.887ZM333.281 134.762V133.008H335.172V134.762H333.281" fill="#f0f5fb"/>
<path transform="matrix(1,0,0,1,-138.711,-25.682923)" d="M343.355 137.844 341.488 138.18C341.426 137.809 341.281 137.527 341.062 137.34 340.84 137.152 340.551 137.059 340.191 137.059 339.723 137.059 339.348 137.223 339.066 137.547 338.785 137.871 338.645 138.414 338.645 139.18 338.645 140.027 338.789 140.629 339.07 140.977 339.355 141.328 339.738 141.504 340.223 141.504 340.582 141.504 340.875 141.398 341.105 141.195 341.332 140.992 341.496 140.641 341.59 140.145L343.449 140.461C343.258 141.312 342.887 141.957 342.336 142.395 341.789 142.828 341.055 143.047 340.133 143.047 339.086 143.047 338.254 142.715 337.629 142.059 337.008 141.398 336.699 140.48 336.699 139.312 336.699 138.133 337.008 137.215 337.633 136.559 338.258 135.895 339.102 135.566 340.164 135.566 341.039 135.566 341.73 135.754 342.246 136.129 342.762 136.504 343.129 137.078 343.355 137.844" fill="#f0f5fb"/>
<path transform="matrix(1,0,0,1,-138.711,-25.682923)" d="M344.789 142.887V135.73H346.684V142.887ZM344.789 134.762V133.008H346.684V134.762H344.789" fill="#f0f5fb"/>
<path transform="matrix(1,0,0,1,-138.711,-25.682923)" d="M355.133 142.887H353.238V139.23C353.238 138.461 353.199 137.961 353.117 137.734 353.039 137.508 352.906 137.332 352.723 137.207 352.539 137.082 352.324 137.016 352.066 137.016 351.738 137.016 351.441 137.109 351.184 137.289 350.922 137.465 350.746 137.703 350.648 138 350.551 138.297 350.504 138.844 350.504 139.645V142.887H348.609V135.73H350.371V136.777C350.992 135.973 351.777 135.566 352.727 135.566 353.145 135.566 353.527 135.645 353.871 135.793 354.219 135.945 354.477 136.137 354.66 136.367 354.832 136.602 354.961 136.871 355.031 137.164 355.098 137.461 355.133 137.887 355.133 138.438V142.887" fill="#f0f5fb"/>
<path transform="matrix(1,0,0,1,-138.711,-25.682923)" d="M361.305 138.691C361.293 138.145 361.148 137.73 360.879 137.445 360.609 137.16 360.281 137.016 359.898 137.016 359.48 137.016 359.141 137.168 358.871 137.469 358.602 137.77 358.469 138.176 358.473 138.691ZM361.195 140.605 363.082 140.922C362.84 141.613 362.457 142.145 361.934 142.504 361.41 142.867 360.758 143.047 359.973 143.047 358.723 143.047 357.805 142.641 357.211 141.828 356.734 141.176 356.5 140.355 356.5 139.359 356.5 138.176 356.809 137.246 357.434 136.574 358.051 135.902 358.832 135.566 359.781 135.566 360.848 135.566 361.684 135.918 362.305 136.621 362.918 137.324 363.211 138.402 363.184 139.855H358.441C358.453 140.414 358.605 140.852 358.898 141.164 359.188 141.477 359.551 141.633 359.992 141.633 360.289 141.633 360.535 141.555 360.738 141.387 360.941 141.227 361.094 140.965 361.195 140.605" fill="#f0f5fb"/>
<path transform="matrix(1,0,0,1,-138.711,-25.682923)" d="M368.07 139.672 370.012 139.484C370.129 140.133 370.363 140.613 370.719 140.918 371.078 141.223 371.562 141.375 372.168 141.375 372.809 141.375 373.293 141.238 373.617 140.969 373.945 140.695 374.109 140.379 374.109 140.016 374.109 139.781 374.035 139.582 373.902 139.422 373.766 139.258 373.527 139.109 373.184 138.988 372.949 138.91 372.418 138.766 371.59 138.559 370.52 138.293 369.77 137.969 369.34 137.582 368.73 137.039 368.426 136.375 368.426 135.594 368.426 135.094 368.57 134.621 368.855 134.18 369.141 133.746 369.551 133.41 370.09 133.184 370.625 132.953 371.273 132.84 372.031 132.84 373.27 132.84 374.207 133.109 374.832 133.652 375.457 134.195 375.785 134.926 375.816 135.832L373.824 135.918C373.738 135.41 373.555 135.047 373.273 134.824 372.992 134.598 372.574 134.492 372.012 134.492 371.434 134.492 370.977 134.609 370.648 134.848 370.438 135 370.332 135.203 370.332 135.461 370.332 135.695 370.434 135.895 370.629 136.059 370.883 136.27 371.488 136.488 372.465 136.723 373.434 136.949 374.152 137.188 374.617 137.434 375.082 137.676 375.445 138.012 375.707 138.434 375.969 138.859 376.105 139.387 376.105 140.008 376.105 140.574 375.945 141.102 375.629 141.602 375.312 142.094 374.871 142.461 374.297 142.699 373.723 142.941 373.004 143.059 372.148 143.059 370.898 143.059 369.938 142.773 369.27 142.195 368.598 141.617 368.199 140.777 368.07 139.672" fill="#f0f5fb"/>
<path transform="matrix(1,0,0,1,-138.711,-25.682923)" d="M379.102 142.887 376.836 135.73H378.672L380.016 140.418 381.25 135.73H383.074L384.266 140.418 385.633 135.73H387.5L385.203 142.887H383.383L382.152 138.281 380.938 142.887H379.102" fill="#f0f5fb"/>
<path transform="matrix(1,0,0,1,-138.711,-25.682923)" d="M392.75 138.691C392.742 138.145 392.598 137.73 392.328 137.445 392.059 137.16 391.73 137.016 391.344 137.016 390.934 137.016 390.59 137.168 390.32 137.469 390.051 137.77 389.918 138.176 389.922 138.691ZM392.645 140.605 394.531 140.922C394.289 141.613 393.906 142.145 393.383 142.504 392.859 142.867 392.203 143.047 391.418 143.047 390.172 143.047 389.254 142.641 388.656 141.828 388.18 141.176 387.945 140.355 387.945 139.359 387.945 138.176 388.258 137.246 388.879 136.574 389.496 135.902 390.281 135.566 391.23 135.566 392.293 135.566 393.137 135.918 393.75 136.621 394.363 137.328 394.66 138.402 394.633 139.855H389.887C389.902 140.414 390.055 140.852 390.348 141.164 390.641 141.477 391.004 141.633 391.438 141.633 391.734 141.633 391.984 141.555 392.184 141.387 392.387 141.227 392.539 140.965 392.645 140.605" fill="#f0f5fb"/>
<path transform="matrix(1,0,0,1,-138.711,-25.682923)" d="M397.688 139.148C397.688 139.918 397.789 140.469 398.004 140.809 398.309 141.301 398.734 141.555 399.281 141.555 399.715 141.555 400.086 141.363 400.395 140.992 400.699 140.625 400.852 140.07 400.852 139.336 400.852 138.512 400.703 137.922 400.41 137.559 400.113 137.199 399.73 137.016 399.266 137.016 398.82 137.016 398.441 137.195 398.141 137.551 397.84 137.91 397.688 138.441 397.688 139.148ZM402.738 142.887H400.98V141.836C400.688 142.242 400.344 142.547 399.949 142.746 399.547 142.945 399.148 143.047 398.742 143.047 397.922 143.047 397.215 142.715 396.629 142.055 396.043 141.391 395.75 140.465 395.75 139.277 395.75 138.066 396.035 137.148 396.605 136.512 397.176 135.883 397.898 135.566 398.77 135.566 399.57 135.566 400.262 135.898 400.848 136.562V133.008H402.738V142.887" fill="#f0f5fb"/>
<path transform="matrix(1,0,0,1,-138.711,-25.682923)" d="M408.855 138.691C408.84 138.145 408.699 137.73 408.43 137.445 408.16 137.16 407.836 137.016 407.449 137.016 407.031 137.016 406.691 137.168 406.422 137.469 406.152 137.77 406.02 138.176 406.023 138.691ZM408.746 140.605 410.633 140.922C410.391 141.613 410.008 142.145 409.484 142.504 408.961 142.867 408.309 143.047 407.523 143.047 406.277 143.047 405.355 142.641 404.754 141.828 404.285 141.176 404.051 140.355 404.051 139.359 404.051 138.176 404.359 137.246 404.98 136.574 405.602 135.902 406.383 135.566 407.332 135.566 408.398 135.566 409.234 135.918 409.855 136.621 410.469 137.328 410.762 138.402 410.734 139.855H405.992C406.004 140.414 406.156 140.852 406.449 141.164 406.742 141.477 407.102 141.633 407.543 141.633 407.84 141.633 408.086 141.555 408.289 141.387 408.492 141.227 408.645 140.965 408.746 140.605" fill="#f0f5fb"/>
<path transform="matrix(1,0,0,1,-138.711,-25.682923)" d="M418.789 142.887H416.895V139.23C416.895 138.461 416.852 137.961 416.773 137.734 416.691 137.508 416.562 137.332 416.379 137.207 416.195 137.082 415.977 137.016 415.723 137.016 415.395 137.016 415.102 137.109 414.84 137.285 414.582 137.465 414.398 137.703 414.305 138 414.207 138.297 414.16 138.844 414.16 139.645V142.887H412.27V135.73H414.023V136.777C414.648 135.973 415.438 135.566 416.383 135.566 416.805 135.566 417.184 135.645 417.531 135.793 417.875 135.941 418.137 136.137 418.312 136.367 418.488 136.602 418.613 136.871 418.684 137.164 418.754 137.461 418.789 137.887 418.789 138.438V142.887" fill="#f0f5fb"/>
</g>
</svg>
