<svg xmlns="http://www.w3.org/2000/svg" xmlns:xlink="http://www.w3.org/1999/xlink" version="1.1" width="405pt" height="87.8836pt" viewBox="0 0 405 87.8836">
<defs>
<clipPath id="clip_0">
<path transform="matrix(1,0,0,-1,0,87.8836)" d="M0 87.884H405V0H0Z"/>
</clipPath>
</defs>
<g id="layer_1" data-name="">
<g clip-path="url(#clip_0)">
<path transform="matrix(1,0,0,-1,253.5525,72.968997)" d="M0 0V29.067H-5.904V33.493H0V34.515C0 36.31 .281 37.904 .846 39.297 1.409 40.69 2.222 41.861 3.28 42.811 4.338 43.76 5.628 44.477 7.147 44.962 8.667 45.447 10.381 45.689 12.292 45.689 13.765 45.689 15.227 45.514 16.677 45.163L16.332 40.52C15.848 40.602 15.301 40.669 14.691 40.721 14.081 40.772 13.478 40.798 12.879 40.798 10.808 40.798 9.207 40.257 8.079 39.173 6.951 38.09 6.388 36.537 6.388 34.515V33.493H12.691V29.067H6.388V0Z" fill="#231f20"/>
<path transform="matrix(1,0,0,-1,143.6101,61.846399)" d="M0 0C0 1.053-.179 1.981-.536 2.786-.894 3.59-1.525 4.328-2.435 4.999-3.345 5.669-4.57 6.299-6.111 6.887-7.654 7.476-9.611 8.079-11.981 8.698-14.469 9.338-16.718 10.065-18.732 10.88-20.746 11.696-22.461 12.635-23.877 13.697-25.293 14.76-26.38 15.973-27.14 17.334-27.899 18.697-28.279 20.254-28.279 22.009-28.279 23.763-27.87 25.388-27.054 26.884-26.236 28.38-25.079 29.681-23.584 30.785-22.087 31.888-20.292 32.75-18.197 33.37-16.103 33.988-13.766 34.298-11.188 34.298-8.356 34.298-5.836 33.916-3.626 33.153-1.416 32.389 .442 31.378 1.95 30.119 3.457 28.86 4.604 27.405 5.386 25.754 6.168 24.103 6.56 22.401 6.56 20.647H-.104C-.104 21.905-.328 23.072-.777 24.145-1.226 25.218-1.911 26.146-2.832 26.931-3.753 27.715-4.903 28.324-6.285 28.757-7.666 29.19-9.3 29.407-11.188 29.407-12.96 29.407-14.503 29.222-15.814 28.85-17.126 28.479-18.209 27.968-19.061 27.317-19.912 26.667-20.545 25.899-20.959 25.012-21.374 24.124-21.581 23.154-21.581 22.102-21.581 21.152-21.356 20.286-20.908 19.502-20.458 18.717-19.763 17.995-18.818 17.334-17.875 16.674-16.66 16.066-15.176 15.508-13.691 14.951-11.913 14.415-9.841 13.898-6.987 13.176-4.523 12.376-2.452 11.5-.381 10.622 1.329 9.627 2.676 8.513 4.022 7.398 5.023 6.149 5.68 4.767 6.336 3.384 6.664 1.815 6.664 .062 6.664-1.775 6.249-3.436 5.42-4.922 4.592-6.408 3.412-7.677 1.882-8.729 .35-9.782-1.491-10.592-3.644-11.159-5.796-11.727-8.196-12.011-10.843-12.011-12.385-12.011-13.927-11.882-15.47-11.624-17.012-11.366-18.49-10.979-19.905-10.463-21.321-9.947-22.634-9.307-23.843-8.543-25.051-7.78-26.104-6.893-27.001-5.881-27.899-4.871-28.602-3.736-29.107-2.477-29.614-1.218-29.867 .165-29.867 1.671H-23.203C-23.203 .124-22.864-1.203-22.185-2.306-21.506-3.411-20.597-4.324-19.457-5.046-18.317-5.769-17.006-6.299-15.521-6.64-14.036-6.98-12.478-7.151-10.843-7.151-7.344-7.151-4.662-6.511-2.798-5.231-.933-3.952 0-2.208 0 0" fill="#231f20"/>
<path transform="matrix(1,0,0,-1,169.9216,69.1828)" d="M0 0C1.128 0 2.21 .165 3.247 .495 4.282 .825 5.197 1.279 5.991 1.857 6.785 2.435 7.43 3.121 7.925 3.916 8.42 4.71 8.714 5.572 8.806 6.5H14.848C14.756 5.015 14.301 3.596 13.484 2.244 12.667 .892 11.59-.294 10.256-1.315 8.92-2.337 7.373-3.152 5.611-3.761 3.851-4.369 1.98-4.674 0-4.674-2.808-4.674-5.253-4.225-7.337-3.328-9.42-2.43-11.151-1.218-12.532 .31-13.914 1.836-14.945 3.611-15.623 5.634-16.303 7.656-16.642 9.792-16.642 12.042V13.342C-16.642 15.591-16.303 17.727-15.623 19.75-14.945 21.771-13.914 23.546-12.532 25.073-11.151 26.601-9.425 27.813-7.354 28.711-5.282 29.609-2.843 30.058-.034 30.058 2.153 30.058 4.138 29.748 5.923 29.129 7.706 28.509 9.248 27.658 10.549 26.575 11.85 25.492 12.868 24.207 13.605 22.721 14.341 21.235 14.756 19.636 14.848 17.923H8.806C8.714 18.955 8.442 19.919 7.994 20.817 7.545 21.715 6.941 22.499 6.182 23.17 5.422 23.84 4.519 24.372 3.471 24.764 2.424 25.156 1.255 25.352-.034 25.352-2.014 25.352-3.654 25.001-4.954 24.3-6.255 23.598-7.302 22.675-8.097 21.529-8.891 20.384-9.448 19.094-9.771 17.66-10.094 16.225-10.254 14.786-10.254 13.342V12.042C-10.254 10.556-10.094 9.095-9.771 7.662-9.448 6.227-8.896 4.942-8.113 3.808-7.331 2.672-6.283 1.753-4.971 1.053-3.659 .351-2.002 0 0 0" fill="#231f20"/>
<path transform="matrix(1,0,0,-1,208.656,68.3777)" d="M0 0H23.825V-4.86H-6.663V40.83H0Z" fill="#231f20"/>
<path transform="matrix(1,0,0,-1,283.0262,43.5617)" d="M0 0C-1.289 0-2.475-.212-3.556-.635-4.638-1.058-5.605-1.671-6.456-2.477-7.309-3.281-8.016-4.283-8.58-5.479-9.145-6.676-9.529-8.049-9.736-9.596H8.978V-9.163C8.908-8.049 8.707-6.944 8.373-5.851 8.039-4.757 7.521-3.776 6.819-2.91 6.117-2.043 5.214-1.342 4.109-.805 3.005-.269 1.634 0 0 0M.795-30.026C-1.807-30.026-4.16-29.624-6.267-28.819-8.372-28.014-10.174-26.895-11.67-25.46-13.167-24.027-14.317-22.319-15.123-20.338-15.929-18.356-16.331-16.189-16.331-13.837V-12.537C-16.331-9.813-15.877-7.378-14.968-5.231-14.059-3.085-12.845-1.28-11.325 .186-9.806 1.651-8.068 2.771-6.111 3.544-4.155 4.318-2.118 4.705 0 4.705 2.671 4.705 4.973 4.287 6.906 3.451 8.839 2.616 10.433 1.465 11.688 0 12.942-1.465 13.868-3.199 14.468-5.201 15.065-7.202 15.365-9.379 15.365-11.732V-14.301H-9.944C-9.897-15.849-9.616-17.294-9.098-18.635-8.58-19.977-7.844-21.142-6.888-22.133-5.934-23.124-4.781-23.908-3.436-24.486-2.089-25.063-.564-25.353 1.14-25.353 3.396-25.353 5.306-24.94 6.872-24.114 8.437-23.289 9.807-22.195 10.98-20.833L14.882-23.557C14.283-24.382 13.558-25.182 12.707-25.956 11.854-26.73 10.859-27.421 9.72-28.03 8.58-28.639 7.274-29.124 5.801-29.485 4.328-29.846 2.659-30.026 .795-30.026" fill="#231f20"/>
<path transform="matrix(1,0,0,-1,309.5349,68.1091)" d="M0 0H23.825V-4.86H-6.663V40.83H0Z" fill="#231f20"/>
<path transform="matrix(1,0,0,-1,349.0515,68.6042)" d="M0 0C1.151 0 2.232 .144 3.246 .433 4.259 .722 5.179 1.099 6.008 1.563 6.836 2.027 7.556 2.559 8.166 3.157 8.775 3.755 9.254 4.375 9.599 5.015V11.887H4.281C.621 11.887-2.198 11.375-4.178 10.354-6.158 9.333-7.147 7.79-7.147 5.727-7.147 4.921-6.998 4.168-6.699 3.467-6.399 2.765-5.944 2.161-5.334 1.656-4.725 1.15-3.977 .747-3.09 .449-2.205 .149-1.174 0 0 0M10.6-4.365C10.37-3.953 10.186-3.431 10.048-2.802 9.91-2.172 9.794-1.517 9.702-.836 9.104-1.393 8.43-1.925 7.683-2.43 6.935-2.936 6.116-3.379 5.231-3.761 4.345-4.144 3.384-4.442 2.348-4.659 1.312-4.876 .218-4.984-.933-4.984-2.843-4.984-4.574-4.726-6.128-4.21-7.683-3.694-9.007-2.993-10.1-2.105-11.192-1.218-12.039-.17-12.638 1.037-13.236 2.244-13.535 3.539-13.535 4.921-13.535 6.717-13.145 8.3-12.361 9.673-11.579 11.045-10.457 12.196-8.994 13.125-7.533 14.053-5.766 14.754-3.695 15.229-1.623 15.704 .69 15.941 3.246 15.941H9.599V18.573C9.599 20.574 8.932 22.168 7.596 23.355 6.261 24.542 4.293 25.135 1.692 25.135 .495 25.135-.599 24.99-1.589 24.702-2.578 24.413-3.424 24.026-4.126 23.541-4.828 23.056-5.375 22.493-5.766 21.854-6.158 21.214-6.353 20.543-6.353 19.842H-12.775C-12.775 21.039-12.425 22.226-11.723 23.401-11.021 24.578-10.025 25.636-8.735 26.575-7.447 27.513-5.887 28.277-4.058 28.865-2.227 29.454-.185 29.748 2.071 29.748 4.097 29.748 5.968 29.516 7.683 29.051 9.397 28.587 10.864 27.885 12.085 26.946 13.305 26.007 14.26 24.836 14.95 23.433 15.641 22.029 15.987 20.388 15.987 18.511V2.94C15.987 1.805 16.096 .613 16.315-.635 16.533-1.884 16.861-2.962 17.298-3.87V-4.365Z" fill="#231f20"/>
<path transform="matrix(1,0,0,-1,396.1131,55.9441)" d="M0 0C0 1.672-.174 3.245-.519 4.721-.864 6.196-1.422 7.492-2.193 8.606-2.964 9.72-3.972 10.603-5.214 11.252-6.457 11.902-7.977 12.228-9.771 12.228-10.946 12.228-12.006 12.093-12.949 11.825-13.893 11.557-14.738 11.185-15.486 10.711-16.235 10.235-16.885 9.679-17.437 9.039-17.989 8.399-18.462 7.708-18.854 6.965V-7.522C-18.438-8.265-17.949-8.956-17.386-9.596-16.822-10.236-16.166-10.793-15.417-11.268-14.67-11.742-13.823-12.114-12.88-12.382-11.937-12.65-10.877-12.784-9.703-12.784-7.977-12.784-6.504-12.464-5.283-11.825-4.063-11.186-3.063-10.318-2.279-9.224-1.497-8.131-.922-6.846-.553-5.371-.185-3.896 0-2.321 0-.65ZM6.387-.65C6.387-3.106 6.064-5.371 5.42-7.444 4.775-9.519 3.832-11.314 2.589-12.831 1.346-14.348-.174-15.529-1.969-16.375-3.764-17.221-5.813-17.644-8.114-17.644-10.578-17.644-12.707-17.257-14.503-16.483-16.298-15.709-17.817-14.601-19.061-13.156L-19.371-17.025H-25.24V28.665H-18.854V12.785C-17.61 14.167-16.114 15.23-14.364 15.973-12.615 16.716-10.556 17.087-8.184 17.087-5.836 17.087-3.759 16.674-1.951 15.849-.145 15.024 1.375 13.863 2.606 12.367 3.838 10.871 4.775 9.075 5.42 6.98 6.064 4.886 6.387 2.559 6.387 0Z" fill="#231f20"/>
<path transform="matrix(1,0,0,-1,0,87.8836)" d="M196.094 14.646H189.706V48.139H196.094Z" fill="#231f20"/>
<path transform="matrix(1,0,0,-1,196.655,31.3088)" d="M0 0C0 2.077-1.684 3.761-3.761 3.761-5.837 3.761-7.521 2.077-7.521 0-7.521-2.077-5.837-3.76-3.761-3.76-1.684-3.76 0-2.077 0 0" fill="#231f20"/>
<path transform="matrix(1,0,0,-1,244.0632,31.039799)" d="M0 0C0 2.077-1.684 3.76-3.76 3.76-5.837 3.76-7.521 2.077-7.521 0-7.521-2.077-5.837-3.761-3.76-3.761-1.684-3.761 0-2.077 0 0" fill="#231f20"/>
<path transform="matrix(1,0,0,-1,0,87.8836)" d="M243.497 14.915H237.109V48.408H243.497Z" fill="#231f20"/>
<path transform="matrix(1,0,0,-1,57.2449,51.241399)" d="M0 0C.651 1.419 .973 2.94 .955 4.47 .943 5.489 .78 6.513 .465 7.513 .464 7.514 .464 7.516 .463 7.517 .437 7.597 .411 7.677 .384 7.757L.355 7.839C.338 7.888 .32 7.937 .303 7.986 .294 8.008 .285 8.031 .276 8.053-.341 10.033-1.812 11.831-3.517 13.913-5.602 16.459-7.966 19.347-9.192 23.233-10.388 27.018-10.103 30.531-9.851 33.631-9.635 36.286-9.432 38.793-10.159 41.099-10.16 41.102-10.161 41.106-10.162 41.11-10.167 41.128-10.172 41.146-10.176 41.165-10.19 41.216-10.204 41.267-10.219 41.318L-10.241 41.402C-10.266 41.484-10.29 41.567-10.316 41.648-10.37 41.819-10.428 41.987-10.489 42.153-10.499 42.178-10.509 42.201-10.519 42.226-10.573 42.368-10.629 42.51-10.689 42.65-10.691 42.655-10.694 42.661-10.696 42.666-11.647 44.868-13.312 46.662-15.469 47.784-17.631 48.908-20.061 49.239-22.414 48.749H-22.416C-22.569 48.716-22.722 48.68-22.875 48.641-22.896 48.636-22.917 48.631-22.937 48.626-23.109 48.581-23.28 48.532-23.451 48.478-26.117 47.636-28.296 45.806-29.586 43.325-29.747 43.015-29.893 42.699-30.021 42.379-30.535 41.099-30.787 39.746-30.771 38.387-30.759 37.367-30.597 36.343-30.28 35.343-30.28 35.341-30.279 35.339-30.278 35.337-30.253 35.257-30.227 35.178-30.2 35.1L-30.171 35.017C-30.165 35.001-30.16 34.986-30.154 34.971-30.146 34.947-30.137 34.922-30.128 34.898-30.123 34.883-30.117 34.867-30.111 34.852L-30.093 34.804C-29.478 32.832-28.008 31.036-26.306 28.956-24.218 26.404-21.852 23.512-20.623 19.623-19.392 15.723-19.667 11.974-19.91 8.667-20.105 5.998-20.275 3.692-19.656 1.758-19.655 1.755-19.655 1.751-19.654 1.749-19.649 1.729-19.645 1.709-19.64 1.689-19.626 1.639-19.611 1.588-19.598 1.538L-19.574 1.454C-19.551 1.372-19.525 1.29-19.5 1.208-19.456 1.068-19.409 .931-19.36 .794-17.833-3.427-13.818-6.109-9.511-6.109-8.47-6.109-7.41-5.952-6.365-5.622-3.698-4.78-1.52-2.95-.23-.469-.149-.314-.073-.158 0 0" fill="#9ccc58"/>
<path transform="matrix(1,0,0,-1,88.6638,24.925499)" d="M0 0C-1.782 2.795-4.547 4.729-7.784 5.445-14.467 6.923-21.105 2.689-22.584-3.993-22.605-4.092-22.626-4.192-22.646-4.292L-22.664-4.393C-22.678-4.461-22.689-4.53-22.702-4.599L-22.703-4.605C-22.705-4.621-22.708-4.637-22.71-4.652-22.711-4.655-22.711-4.658-22.712-4.661-23.249-7.051-22.804-9.772-22.288-12.924-21.653-16.8-20.935-21.193-21.984-25.941-23.038-30.702-25.555-34.405-27.775-37.672-29.562-40.303-31.107-42.575-31.619-44.929-31.62-44.934-31.622-44.939-31.623-44.943-31.629-44.965-31.636-44.986-31.641-45.007-31.657-45.068-31.674-45.13-31.689-45.191L-31.715-45.291C-31.739-45.39-31.763-45.489-31.784-45.588-32.501-48.826-31.913-52.148-30.131-54.943-28.348-57.738-25.583-59.672-22.347-60.388-21.446-60.587-20.541-60.686-19.641-60.686-17.304-60.686-15.01-60.021-12.991-58.734-12.293-58.289-11.647-57.781-11.063-57.221-9.306-55.54-8.084-53.378-7.547-50.95-7.546-50.948-7.546-50.947-7.546-50.945-7.524-50.847-7.504-50.749-7.484-50.651L-7.466-50.55C-7.453-50.481-7.439-50.413-7.428-50.344L-7.427-50.337C-7.424-50.32-7.422-50.302-7.419-50.285V-50.282C-6.879-47.882-7.325-45.157-7.842-42.002-8.477-38.132-9.194-33.746-8.146-29.002-7.123-24.381-4.736-20.927-2.63-17.879-.83-15.275 .869-12.815 1.488-10.015 1.49-10.009 1.492-10.002 1.494-9.996 1.5-9.976 1.506-9.956 1.511-9.936 1.527-9.875 1.543-9.813 1.56-9.751L1.585-9.652C1.609-9.553 1.633-9.454 1.654-9.354 2.37-6.118 1.783-2.795 0 0" fill="#9ccc58"/>
<path transform="matrix(1,0,0,-1,18.8201,29.338097)" d="M0 0C-2.646 1.376-5.669 1.639-8.513 .741-11.356-.157-13.68-2.109-15.056-4.755-16.432-7.4-16.694-10.423-15.796-13.267-14.898-16.111-12.946-18.435-10.301-19.81-8.687-20.649-6.933-21.075-5.163-21.075-4.033-21.075-2.897-20.901-1.788-20.551 1.055-19.653 3.379-17.701 4.755-15.056 6.13-12.41 6.394-9.387 5.495-6.543 4.597-3.699 2.646-1.375 0 0" fill="#9ccc58"/>
</g>
</g>
</svg>
