<?xml version="1.0" encoding="UTF-8" standalone="no"?>


<svg
   version="1.1"
   id="svg2"
   width="1622.2933"
   height="386.30667"
   viewBox="0 0 1622.2933 386.30667"
   
   
   
   xmlns="http://www.w3.org/2000/svg"
   >
  <defs
     id="defs6" />
  
  <g
     id="g8"
     
     
     transform="matrix(1.3333333,0,0,-1.3333333,0,386.30667)">
    <g
       id="g10"
       transform="scale(0.1)">
      <g
         id="g12"
         transform="scale(10)" />
      <path
         d="m 4208.78,2145.19 c 0,89.51 -2.89,255.53 -27.43,298.84 -10.11,17.32 -36.09,27.43 -72.18,30.31 l -36.09,2.89 c -8.67,10.11 -5.78,28.87 2.89,34.65 54.85,-2.89 108.27,-4.33 164.57,-4.33 60.63,0 99.61,1.44 151.58,4.33 11.55,-7.22 10.11,-25.99 2.89,-34.65 l -34.65,-2.89 c -36.09,-2.88 -63.51,-15.88 -72.18,-34.64 -20.21,-47.64 -20.21,-213.66 -20.21,-294.51 v -163.13 c 0,-125.59 -20.22,-258.4 -101.06,-345.03 -62.08,-67.84 -168.9,-105.38 -275.73,-105.38 -99.61,0 -199.22,18.77 -269.96,79.4 -76.51,63.52 -112.61,168.9 -112.61,340.7 v 340.7 c 0,150.14 -2.88,174.68 -86.61,181.89 l -36.09,2.89 c -8.66,5.78 -5.77,30.32 2.89,34.65 72.18,-2.89 121.26,-4.33 179,-4.33 59.19,0 106.84,1.44 177.57,4.33 8.66,-4.33 11.55,-28.87 2.89,-34.65 l -34.65,-2.89 c -83.73,-7.21 -86.62,-31.75 -86.62,-181.89 v -311.83 c 0,-232.42 72.19,-385.45 293.06,-385.45 209.33,0 288.73,164.57 288.73,384.01 v 166.01"
         style="fill:#231f20;fill-opacity:1;fill-rule:nonzero;stroke:none"
         id="path14" />
      <path
         d="m 4991.24,1940.2 c 33.2,-67.85 64.96,-134.26 99.61,-197.78 h 2.89 c 38.97,67.85 75.07,142.92 111.16,216.55 l 135.71,275.73 c 64.96,131.37 106.82,210.77 109.7,277.18 49.09,-4.33 79.41,-4.33 108.27,-4.33 36.1,0 83.74,1.44 128.49,4.33 8.66,-5.78 8.66,-30.32 1.45,-36.09 l -30.32,-2.89 c -90.94,-8.67 -102.5,-36.09 -101.05,-137.15 2.88,-153.02 4.32,-420.09 15.88,-627.97 4.32,-72.19 2.89,-111.17 70.73,-116.94 l 46.2,-4.33 c 8.66,-8.66 7.22,-30.32 -2.89,-36.09 -59.19,2.88 -118.38,4.33 -170.35,4.33 -50.53,0 -115.49,-1.45 -174.68,-4.33 -10.1,7.21 -11.54,27.43 -2.88,36.09 l 41.87,4.33 c 70.73,7.22 70.73,30.32 70.73,122.71 l -4.33,602 h -2.89 c -10.11,-15.88 -64.96,-131.38 -93.84,-187.67 l -128.47,-252.64 c -64.97,-127.04 -129.94,-262.75 -155.92,-329.15 -2.89,-4.33 -8.66,-5.78 -14.43,-5.78 -2.9,0 -10.11,1.45 -13,5.78 -24.54,76.51 -93.83,217.99 -127.03,288.72 l -129.94,278.62 c -30.31,66.41 -60.63,141.48 -92.39,207.89 h -2.89 c -5.77,-89.51 -10.1,-173.23 -14.43,-256.97 -4.33,-88.06 -10.11,-216.54 -10.11,-339.25 0,-106.83 8.66,-129.93 64.97,-134.26 l 54.85,-4.33 c 10.11,-8.66 8.67,-31.76 -1.44,-36.09 -49.08,2.88 -105.38,4.33 -160.25,4.33 -46.19,0 -98.16,-1.45 -147.24,-4.33 -8.66,7.21 -11.55,28.87 -2.89,36.09 l 31.76,4.33 c 60.63,8.66 80.85,17.32 89.51,118.38 8.66,95.28 15.88,174.68 24.54,317.6 7.22,119.82 12.99,242.53 15.88,321.93 2.89,90.95 -8.66,112.6 -96.73,124.15 l -23.1,2.89 c -7.21,8.66 -5.77,30.31 5.78,36.09 43.31,-2.89 77.95,-4.33 114.05,-4.33 33.2,0 72.18,0 119.82,4.33 -5.78,-56.31 30.31,-145.81 75.07,-238.2 l 164.57,-333.48"
         style="fill:#231f20;fill-opacity:1;fill-rule:nonzero;stroke:none"
         id="path16" />
      <path
         d="m 5946.93,2291 c 0,150.14 -2.89,171.8 -88.06,181.9 l -23.1,2.89 c -8.66,5.77 -5.77,31.76 2.89,36.09 62.08,-2.89 111.16,-4.33 170.35,-4.33 h 271.4 c 92.39,0 177.57,0 194.89,4.33 8.66,-24.54 17.33,-128.49 23.1,-192 -5.77,-8.67 -28.87,-11.55 -36.09,-2.89 -21.66,67.85 -34.64,118.37 -109.71,137.14 -30.32,7.22 -76.52,8.67 -140.04,8.67 h -103.94 c -43.31,0 -43.31,-2.89 -43.31,-57.75 v -288.73 c 0,-40.42 4.33,-40.42 47.64,-40.42 h 83.73 c 60.63,0 105.39,2.89 122.71,8.66 17.33,5.78 27.43,14.44 34.65,50.53 l 11.55,59.19 c 7.21,8.66 31.75,8.66 37.54,-1.44 0,-34.65 -5.79,-90.95 -5.79,-145.81 0,-51.97 5.79,-106.83 5.79,-138.59 -5.79,-10.11 -30.33,-10.11 -37.54,-1.44 l -12.99,56.3 c -5.78,25.99 -15.88,47.63 -44.76,54.86 -20.21,5.77 -54.85,7.22 -111.16,7.22 h -83.73 c -43.31,0 -47.64,-1.45 -47.64,-38.99 v -203.55 c 0,-76.51 4.33,-125.59 27.43,-150.14 17.33,-17.32 47.64,-33.2 174.68,-33.2 111.16,0 153.03,5.78 184.79,21.66 25.98,14.43 64.96,64.96 102.5,140.03 10.09,7.22 30.31,2.89 36.08,-10.11 -10.1,-50.53 -46.19,-161.68 -64.96,-200.66 -129.92,2.88 -258.41,4.33 -386.89,4.33 h -129.93 c -62.08,0 -111.16,-1.45 -196.33,-4.33 -8.67,4.33 -11.56,27.43 -2.89,36.09 l 47.64,4.33 c 82.29,7.22 89.5,28.87 89.5,180.45 V 2291"
         style="fill:#231f20;fill-opacity:1;fill-rule:nonzero;stroke:none"
         id="path18" />
      <path
         d="m 7111.97,2614.38 c 37.53,0 64.96,31.76 64.96,76.51 0,43.31 -27.43,75.07 -64.96,75.07 -36.09,0 -64.97,-31.76 -64.97,-75.07 0,-44.75 28.88,-76.51 64.97,-76.51 z m 122.71,76.51 c 0,-62.08 -50.53,-116.94 -122.71,-116.94 -72.18,0 -122.71,54.86 -122.71,116.94 0,60.63 50.53,116.93 122.71,116.93 72.18,0 122.71,-56.3 122.71,-116.93 z M 6957.5,2018.16 c -11.55,-33.21 -10.11,-34.65 30.31,-34.65 h 177.57 c 41.87,0 44.76,5.78 31.77,44.75 l -77.96,235.31 c -11.55,34.65 -24.54,73.63 -33.2,90.95 h -2.89 c -4.33,-7.22 -18.77,-41.86 -34.65,-85.17 z m 285.84,-128.49 c -10.11,31.76 -15.88,36.1 -59.19,36.1 h -217.99 c -36.09,0 -44.75,-4.34 -54.85,-34.65 l -50.53,-151.59 c -21.66,-64.96 -31.77,-103.94 -31.77,-119.82 0,-17.32 7.23,-25.98 41.87,-28.87 l 47.65,-4.33 c 10.1,-7.22 10.1,-30.32 -2.9,-36.09 -37.52,2.88 -82.28,2.88 -150.13,4.33 -47.64,0 -99.61,-2.89 -138.6,-4.33 -8.66,5.77 -11.54,28.87 -2.88,36.09 l 47.64,4.33 c 34.65,2.89 66.41,18.77 86.62,70.74 25.99,66.41 66.41,160.24 127.04,321.93 l 147.25,389.78 c 20.21,51.97 28.88,79.4 24.54,102.5 34.65,10.1 59.19,36.09 75.07,54.86 8.66,0 18.77,-2.89 21.66,-13 18.76,-63.52 41.86,-129.92 63.51,-193.44 l 197.79,-580.34 c 41.86,-124.16 60.62,-145.81 122.7,-153.03 l 38.98,-4.33 c 10.1,-7.22 7.21,-30.32 0,-36.09 -59.19,2.88 -109.72,4.33 -174.68,4.33 -69.3,0 -124.15,-2.89 -166.02,-4.33 -11.55,5.77 -12.99,28.87 -2.89,36.09 l 41.87,4.33 c 30.32,2.89 50.53,11.55 50.53,25.98 0,15.88 -7.22,41.87 -18.77,76.52 l -63.52,196.33"
         style="fill:#231f20;fill-opacity:1;fill-rule:nonzero;stroke:none"
         id="path20" />
      <path
         d="m 4208.78,870.629 c 0,89.5 -2.89,255.531 -27.43,298.831 -10.11,17.32 -36.09,27.43 -72.18,30.32 l -36.09,2.88 c -8.67,10.11 -5.78,28.88 2.89,34.65 54.85,-2.88 108.27,-4.33 164.57,-4.33 60.63,0 99.61,1.45 151.58,4.33 11.55,-7.21 10.11,-25.98 2.89,-34.65 l -34.65,-2.88 c -36.09,-2.89 -63.51,-15.88 -72.18,-34.65 -20.21,-47.64 -20.21,-213.661 -20.21,-294.501 V 707.5 c 0,-125.59 -20.22,-258.41 -101.06,-345.031 -62.08,-67.848 -168.9,-105.379 -275.73,-105.379 -99.61,0 -199.22,18.769 -269.96,79.398 -76.51,63.524 -112.61,168.903 -112.61,340.692 v 340.7 c 0,150.14 -2.88,174.68 -86.61,181.9 l -36.09,2.88 c -8.66,5.78 -5.77,30.32 2.89,34.65 72.18,-2.88 121.26,-4.33 179,-4.33 59.19,0 106.84,1.45 177.57,4.33 8.66,-4.33 11.55,-28.87 2.89,-34.65 l -34.65,-2.88 c -83.73,-7.22 -86.62,-31.76 -86.62,-181.9 V 706.059 c 0,-232.418 72.19,-385.45 293.06,-385.45 209.33,0 288.73,164.582 288.73,384 v 166.02"
         style="fill:#231f20;fill-opacity:1;fill-rule:nonzero;stroke:none"
         id="path22" />
      <path
         d="m 5430.11,525.609 c 0,-43.308 0,-215.109 4.32,-252.64 -2.89,-8.66 -11.55,-15.879 -27.43,-15.879 -17.32,24.539 -59.19,75.07 -184.78,217.988 l -334.93,381.113 c -38.97,44.758 -137.14,163.129 -167.46,194.889 h -2.89 c -5.77,-17.32 -7.21,-50.53 -7.21,-93.83 V 642.539 c 0,-67.848 1.44,-255.527 25.98,-298.84 8.67,-15.871 37.54,-24.539 73.63,-27.418 l 44.75,-4.332 c 8.66,-11.551 7.22,-28.871 -2.89,-36.09 -64.96,2.879 -115.49,4.332 -168.9,4.332 -60.63,0 -99.61,-1.453 -150.14,-4.332 -10.1,7.219 -11.54,27.422 -2.88,36.09 l 38.97,4.332 c 33.21,4.328 56.3,12.989 63.53,28.867 20.2,51.973 18.76,228.09 18.76,297.391 v 417.201 c 0,40.43 -1.44,70.75 -31.76,103.95 -20.21,20.21 -54.85,30.31 -89.5,34.64 l -24.54,2.89 c -8.67,8.67 -8.67,30.32 2.88,36.09 60.63,-4.33 137.15,-4.33 163.13,-4.33 23.1,0 47.64,1.45 66.41,4.33 28.88,-73.62 199.22,-264.181 246.86,-317.599 l 140.03,-157.352 c 99.61,-111.16 170.35,-192.007 238.21,-261.289 h 2.88 c 5.78,7.211 5.78,30.309 5.78,60.621 v 308.938 c 0,67.851 -1.45,255.531 -28.88,298.831 -8.66,12.99 -31.76,21.66 -89.5,28.87 l -24.54,2.89 c -10.11,8.67 -8.66,31.76 2.88,36.09 66.41,-2.88 115.49,-4.33 170.35,-4.33 62.07,0 99.61,1.45 148.69,4.33 11.55,-7.21 11.55,-27.42 2.89,-36.09 l -20.21,-2.89 c -46.19,-7.21 -75.07,-18.76 -80.84,-30.31 -24.54,-51.97 -21.65,-230.981 -21.65,-297.391 v -345.02"
         style="fill:#231f20;fill-opacity:1;fill-rule:nonzero;stroke:none"
         id="path24" />
      <path
         d="m 5812.68,1013.55 c 0,153.03 -2.89,177.57 -88.07,184.78 l -36.08,2.89 c -8.67,5.77 -5.79,31.76 2.88,36.09 72.18,-2.88 121.27,-4.33 181.9,-4.33 57.74,0 106.83,1.45 179,4.33 8.67,-4.33 11.56,-30.32 2.9,-36.09 l -36.1,-2.89 c -85.16,-7.21 -88.06,-31.75 -88.06,-184.78 V 499.621 c 0,-153.031 2.9,-173.23 88.06,-183.34 l 36.1,-4.332 c 8.66,-5.781 5.77,-31.758 -2.9,-36.09 -72.17,2.879 -121.26,4.332 -179,4.332 -60.63,0 -109.72,-1.453 -181.9,-4.332 -8.67,4.332 -11.55,27.422 -2.88,36.09 l 36.08,4.332 c 85.18,10.11 88.07,30.309 88.07,183.34 v 513.929"
         style="fill:#231f20;fill-opacity:1;fill-rule:nonzero;stroke:none"
         id="path26" />
      <path
         d="m 6310.77,1079.96 c -33.2,80.84 -54.86,111.16 -116.93,118.37 l -25.99,2.89 c -10.11,8.67 -8.66,28.88 2.88,36.09 41.87,-2.88 88.07,-4.33 150.15,-4.33 63.51,0 114.04,1.45 174.68,4.33 10.1,-5.77 12.98,-27.42 2.88,-36.09 l -21.65,-2.89 c -54.86,-7.21 -66.41,-15.88 -67.85,-27.42 2.89,-14.44 27.43,-92.4 72.18,-202.109 66.41,-167.461 132.82,-333.481 204.99,-498.063 44.76,95.293 105.39,243.981 138.6,320.492 41.86,98.168 109.71,261.3 134.25,323.37 11.55,30.32 12.99,46.2 12.99,56.31 0,10.1 -14.43,21.65 -64.96,27.42 l -25.98,2.89 c -10.11,8.67 -7.22,30.32 2.88,36.09 40.43,-2.88 95.28,-4.33 150.14,-4.33 47.64,0 92.4,1.45 140.03,4.33 10.11,-5.77 10.11,-28.87 2.89,-36.09 l -43.31,-2.89 c -34.65,-2.88 -56.3,-20.21 -75.07,-50.52 -40.42,-67.85 -96.72,-184.79 -161.69,-332.04 l -77.95,-177.559 c -57.75,-132.82 -125.6,-300.281 -150.14,-376.789 -4.33,-2.883 -10.11,-4.332 -15.88,-4.332 -7.22,0 -14.43,1.449 -21.65,4.332 -15.88,60.629 -41.87,131.379 -66.41,191.996 l -254.08,626.542"
         style="fill:#231f20;fill-opacity:1;fill-rule:nonzero;stroke:none"
         id="path28" />
      <path
         d="m 7389.18,1016.44 c 0,150.14 -2.89,171.79 -88.07,181.89 l -23.09,2.89 c -8.66,5.77 -5.77,31.76 2.89,36.09 62.08,-2.88 111.16,-4.33 170.35,-4.33 h 271.4 c 92.39,0 177.56,0 194.89,4.33 8.66,-24.54 17.32,-128.48 23.09,-192 -5.77,-8.66 -28.86,-11.55 -36.08,-2.89 -21.66,67.85 -34.65,118.38 -109.72,137.15 -30.32,7.21 -76.51,8.66 -140.04,8.66 h -103.93 c -43.31,0 -43.31,-2.89 -43.31,-57.74 V 841.762 c 0,-40.422 4.32,-40.422 47.64,-40.422 h 83.73 c 60.63,0 105.39,2.879 122.71,8.66 17.32,5.77 27.42,14.43 34.65,50.531 l 11.54,59.18 c 7.22,8.668 31.76,8.668 37.54,-1.441 0,-34.649 -5.78,-90.95 -5.78,-145.809 0,-51.973 5.78,-106.82 5.78,-138.582 -5.78,-10.109 -30.32,-10.109 -37.54,-1.449 l -12.99,56.3 c -5.78,25.989 -15.88,47.641 -44.75,54.86 -20.22,5.769 -54.86,7.219 -111.16,7.219 h -83.73 c -43.32,0 -47.64,-1.45 -47.64,-38.981 V 508.281 c 0,-76.511 4.32,-125.59 27.43,-150.133 17.32,-17.328 47.64,-33.207 174.68,-33.207 111.16,0 153.03,5.778 184.78,21.649 25.99,14.441 64.96,64.969 102.5,140.031 10.1,7.231 30.32,2.891 36.09,-10.09 -10.1,-50.531 -46.19,-161.691 -64.96,-200.672 -129.93,2.879 -258.41,4.332 -386.9,4.332 h -129.92 c -62.08,0 -111.16,-1.453 -196.34,-4.332 -8.66,4.332 -11.55,27.422 -2.89,36.09 l 47.65,4.332 c 82.28,7.219 89.5,28.867 89.5,180.449 v 519.71"
         style="fill:#231f20;fill-opacity:1;fill-rule:nonzero;stroke:none"
         id="path30" />
      <path
         d="m 8367.99,808.551 c 0,-25.981 0,-41.86 4.32,-47.633 4.34,-4.34 25.99,-7.227 99.62,-7.227 51.97,0 106.83,5.778 148.7,37.539 38.97,30.321 72.17,80.84 72.17,179.008 0,114.052 -70.73,222.322 -230.97,222.322 -89.52,0 -93.84,-5.78 -93.84,-46.19 z m -118.38,206.439 c 0,137.15 -4.33,161.69 -63.52,168.91 l -46.2,5.77 c -10.1,7.22 -10.1,30.32 1.45,36.09 80.84,7.22 180.45,11.55 321.93,11.55 89.5,0 174.68,-7.21 241.09,-43.31 69.29,-36.09 119.82,-101.05 119.82,-202.102 0,-137.148 -108.28,-212.218 -180.46,-241.089 -7.22,-8.661 0,-23.098 7.22,-34.649 115.49,-186.23 192,-301.711 290.17,-384 24.54,-21.66 60.63,-37.539 99.61,-40.422 7.22,-2.886 8.66,-14.437 1.45,-20.207 -13,-4.332 -36.1,-7.222 -63.53,-7.222 -122.7,0 -196.33,36.089 -298.83,181.89 -37.53,53.422 -96.72,153.031 -141.47,217.992 -21.66,31.758 -44.76,46.2 -102.5,46.2 -64.96,0 -67.85,-1.45 -67.85,-31.762 V 496.73 c 0,-151.582 2.89,-168.902 86.62,-180.449 l 30.31,-4.332 c 8.66,-7.219 5.77,-31.758 -2.89,-36.09 -64.96,2.879 -114.04,4.332 -171.79,4.332 -60.63,0 -112.6,-1.453 -180.45,-4.332 -8.67,4.332 -11.55,25.981 -2.89,36.09 l 36.09,4.332 c 83.73,10.11 86.62,28.867 86.62,180.449 v 518.26"
         style="fill:#231f20;fill-opacity:1;fill-rule:nonzero;stroke:none"
         id="path32" />
      <path
         d="m 9371.33,257.09 c -121.27,0 -197.79,37.531 -225.22,53.41 -17.32,31.77 -36.08,134.262 -38.97,202.109 7.22,10.11 28.88,13 34.65,4.34 21.65,-73.629 80.84,-215.109 248.3,-215.109 121.27,0 180.46,79.398 180.46,166.019 0,63.52 -13,134.25 -118.38,202.102 l -137.15,89.508 c -72.18,47.64 -155.91,129.929 -155.91,248.311 0,137.14 106.83,248.3 294.5,248.3 44.75,0 96.72,-8.66 134.26,-18.77 18.76,-5.77 38.98,-8.66 50.53,-8.66 12.99,-34.65 25.98,-115.49 25.98,-176.12 -5.78,-8.66 -28.87,-13 -36.09,-4.33 -18.77,69.29 -57.74,163.13 -196.34,163.13 -141.47,0 -171.78,-93.84 -171.78,-160.25 0,-83.728 69.28,-144.361 122.7,-177.56 l 115.49,-72.18 c 90.96,-56.309 180.46,-140.039 180.46,-277.18 0,-158.801 -119.83,-267.07 -307.49,-267.07"
         style="fill:#231f20;fill-opacity:1;fill-rule:nonzero;stroke:none"
         id="path34" />
      <path
         d="m 9934.36,1013.55 c 0,153.03 -2.9,177.57 -88.07,184.78 l -36.08,2.89 c -8.67,5.77 -5.79,31.76 2.88,36.09 72.18,-2.88 121.27,-4.33 181.9,-4.33 57.71,0 106.81,1.45 179.01,4.33 8.7,-4.33 11.5,-30.32 2.9,-36.09 l -36.1,-2.89 c -85.2,-7.21 -88.1,-31.75 -88.1,-184.78 V 499.621 c 0,-153.031 2.9,-173.23 88.1,-183.34 l 36.1,-4.332 c 8.6,-5.781 5.8,-31.758 -2.9,-36.09 -72.2,2.879 -121.3,4.332 -179.01,4.332 -60.63,0 -109.72,-1.453 -181.9,-4.332 -8.67,4.332 -11.55,27.422 -2.88,36.09 l 36.08,4.332 c 85.17,10.11 88.07,30.309 88.07,183.34 v 513.929"
         style="fill:#231f20;fill-opacity:1;fill-rule:nonzero;stroke:none"
         id="path36" />
      <path
         d="m 10791.9,496.73 c 0,-151.582 2.9,-173.23 86.6,-180.449 l 46.2,-4.332 c 8.7,-5.781 5.8,-31.758 -2.9,-36.09 -82.3,2.879 -131.4,4.332 -189.1,4.332 -57.7,0 -108.3,-1.453 -200.7,-4.332 -8.6,4.332 -11.5,28.871 0,36.09 l 52,4.332 c 82.3,7.219 89.5,28.867 89.5,180.449 v 645.3 c 0,44.75 0,46.2 -43.3,46.2 h -79.4 c -62.1,0 -141.5,-2.89 -177.6,-36.09 -34.6,-31.76 -49.1,-63.52 -64.9,-99.61 -11.6,-8.66 -31.8,-1.45 -37.6,10.1 23.1,64.97 44.8,157.36 54.9,215.1 4.3,2.89 23.1,4.33 27.4,0 8.7,-46.19 56.3,-44.75 122.7,-44.75 h 584.7 c 78,0 90.9,2.89 112.6,40.43 7.2,2.88 23.1,1.44 26,-4.33 -15.9,-59.19 -26,-176.13 -21.7,-219.44 -5.7,-11.55 -30.3,-11.55 -37.5,-2.89 -4.3,36.09 -14.4,89.51 -36.1,105.39 -33.2,24.54 -88.1,36.09 -167.4,36.09 h -102.5 c -43.4,0 -41.9,-1.45 -41.9,-49.09 V 496.73"
         style="fill:#231f20;fill-opacity:1;fill-rule:nonzero;stroke:none"
         id="path38" />
      <path
         d="m 11770.7,499.621 c 0,-154.473 8.6,-177.57 86.6,-183.34 l 54.8,-4.332 c 8.7,-8.668 5.8,-31.758 -2.8,-36.09 -89.5,2.879 -138.6,4.332 -196.4,4.332 -60.6,0 -112.6,-1.453 -189.1,-4.332 -8.6,4.332 -11.5,27.422 -2.9,36.09 l 44.8,4.332 c 83.7,8.66 86.6,28.867 86.6,183.34 v 73.617 c 0,79.403 -4.3,98.172 -46.2,179.012 l -170.3,332.04 c -49.1,95.28 -70.8,102.49 -114.1,109.71 l -40.4,7.22 c -8.7,10.11 -7.2,30.32 2.9,36.09 46.2,-2.88 98.1,-4.33 167.4,-4.33 66.4,0 118.4,1.45 154.5,4.33 13,-4.33 13,-27.42 4.3,-36.09 l -18.7,-2.89 c -50.6,-7.21 -60.7,-14.43 -60.7,-25.98 0,-14.44 37.6,-96.72 44.8,-111.16 53.4,-106.831 106.8,-220.87 163.1,-320.491 44.8,76.512 92.4,160.25 135.7,243.981 40.4,75.06 93.9,173.23 93.9,190.56 0,8.66 -26,18.76 -60.7,23.09 l -26,2.89 c -10.1,10.11 -8.6,30.32 2.9,36.09 52,-2.88 93.9,-4.33 138.6,-4.33 44.8,0 85.2,1.45 134.3,4.33 11.5,-7.21 13,-27.42 2.9,-36.09 L 12120,1194 c -75,-12.99 -118.3,-103.94 -190.5,-228.09 l -91,-157.359 c -63.5,-109.711 -67.8,-122.711 -67.8,-233.86 v -75.07"
         style="fill:#231f20;fill-opacity:1;fill-rule:nonzero;stroke:none"
         id="path40" />
      <path
         d="m 1448.67,2897.35 c 800.08,0 1448.68,-648.59 1448.68,-1448.67 C 2897.35,648.602 2248.75,0 1448.67,0 648.594,0 0,648.602 0,1448.68 0,2248.76 648.594,2897.35 1448.67,2897.35"
         style="fill:#171717;fill-opacity:1;fill-rule:nonzero;stroke:none"
         id="path42" />
      <path
         d="m 1002.19,1513.78 c 24.88,6.29 38.27,9.71 38.27,14.76 0,5.07 -23.4,26.85 -25.01,28.19 -1.63,1.32 2.32,5.74 4.74,4.47 11.79,-6.26 33.55,-15.66 44.44,-8.49 10.86,7.12 6.47,30.68 5.81,34.45 -0.3,1.62 5.49,3.84 6.53,1.29 1.05,-2.5 14.77,-39.33 25.92,-49.88 11.19,-10.62 37.28,-8.81 43.84,3.41 6.58,12.19 -10.17,39.8 -16.69,46.35 -1.49,1.48 1.95,5.82 3.43,5.06 1.49,-0.75 13.9,-9.62 20.75,-20.23 6.87,-10.56 19.63,-36.7 30.66,-42.95 11.03,-6.27 41.14,-15.39 45.87,-7.47 4.79,7.89 -12.65,32.06 -13.69,33.22 -1.03,1.22 3.1,6.25 4.64,5.08 26.79,-20.39 53.02,-63.97 53.02,-88.72 0,-23 -42.64,-55.35 -117.88,-89.64 -2.84,-1.31 -5.76,-2.59 -8.69,-3.92 -12.3,-6.42 -6,-11.34 39.22,-41.56 1.74,-1.15 3.19,-1.61 5.37,-1.61 2.21,0 60.63,0 60.63,0 0,0 0,-147.99 0,-150.79 0,-1.64 -0.91,-3.14 -2.94,-2.42 -21.38,7.22 -35.62,28.67 -35.62,28.67 0,0 -6.76,-28.38 -26.38,-33.96 -19.64,-5.64 -43.13,26.25 -72.99,76.2 0,0 -34.52,-9.86 -86.27,-32.04 -2.39,-1.06 -4.64,-0.17 -5.67,1.33 -1.07,1.52 -17.33,24.7 -18.29,26.04 -3.52,5.01 -2.86,12.28 2.08,16.94 60.92,57.61 85.38,87.25 94.5,99.71 2.71,3.67 -0.1,4.34 -6.49,4.54 -29.79,1.06 -47.39,-4.65 -69.25,-29.74 -1.38,-1.59 -8.35,0.53 -6.85,4.23 7.75,19.42 8.98,20.52 7.8,24.72 -1.22,4.19 -5.61,10.5 -20.26,10.72 -3.03,0.04 -3.48,7.63 -0.59,8.01 16.88,2.12 27.44,6.5 29.99,12.15 1.82,3.91 1.07,17.18 1.19,19.52 0.14,3.27 6.4,4.26 7.36,1.47 0.98,-2.76 7.06,-18.7 13.46,-21.17 6.41,-2.47 35.77,-11.17 42.84,-9.68 7.04,1.49 8.54,7.51 7.87,11.48 -2.08,12.03 -6.2,22.18 -12.03,25.91 -5.82,3.69 -34,21.55 -35.5,22.86 -1.48,1.31 0.58,6.07 2.53,5.71 1.92,-0.49 29.7,-9.24 32.7,-9.71 2.99,-0.41 6.54,1.96 7.59,4.8 1.05,2.82 5.6,20.68 6.35,23.06 0.72,2.41 6.58,1.97 6.84,-0.58 0.33,-2.54 -0.79,-25.61 0.05,-28.45 0.91,-2.83 6.85,-26.7 14.44,-34.41 7.59,-7.74 11.78,-8.5 24.13,-3.44 12.37,5.07 71.69,39 87.77,57.48 4.03,4.6 8.48,18.09 -17.87,27.89 -22.99,8.55 -135.17,43.99 -204.76,-36.55 -1.24,-1.44 -6.73,1.11 -5.65,3.15 13.86,25.78 15.34,30.09 13.25,35.8 -2.09,5.66 -5.55,10.91 -26.24,12.48 -1.92,0.18 -2.64,5.71 -0.27,6.26 z m 308.04,0 c 24.88,6.29 38.3,9.71 38.3,14.76 0,5.07 -23.4,26.85 -25.05,28.19 -1.64,1.32 2.34,5.74 4.77,4.47 11.77,-6.26 33.52,-15.66 44.41,-8.49 10.88,7.12 6.48,30.68 5.82,34.45 -0.3,1.62 5.49,3.84 6.54,1.29 1.04,-2.5 14.78,-39.33 25.94,-49.88 11.16,-10.62 37.23,-8.81 43.8,3.41 6.56,12.19 -10.1,39.8 -16.67,46.35 -1.5,1.48 1.93,5.82 3.44,5.06 1.46,-0.75 13.88,-9.62 20.74,-20.23 6.88,-10.56 19.62,-36.7 30.65,-42.95 11.05,-6.27 41.14,-15.39 45.88,-7.47 4.78,7.89 -12.64,32.06 -13.68,33.22 -1.07,1.22 3.06,6.25 4.61,5.08 26.83,-20.39 53.04,-63.97 53.04,-88.72 0,-23 -42.67,-55.35 -117.9,-89.64 -2.84,-1.31 -5.71,-2.59 -8.69,-3.92 -12.3,-6.42 -5.97,-11.34 39.23,-41.56 1.74,-1.15 3.18,-1.61 5.37,-1.61 2.18,0 60.64,0 60.64,0 0,0 0,-147.99 0,-150.79 0,-1.64 -0.9,-3.14 -2.93,-2.42 -21.36,7.22 -35.63,28.67 -35.63,28.67 0,0 -6.75,-28.38 -26.41,-33.96 -19.62,-5.64 -43.11,26.25 -72.94,76.2 0,0 -34.53,-9.86 -86.26,-32.04 -2.42,-1.06 -4.66,-0.17 -5.7,1.33 -1.07,1.52 -17.34,24.7 -18.28,26.04 -3.55,5.01 -2.88,12.28 2.06,16.94 60.92,57.61 85.39,87.25 94.48,99.71 2.73,3.67 -0.07,4.34 -6.45,4.54 -29.8,1.06 -47.42,-4.65 -69.26,-29.74 -1.38,-1.59 -8.36,0.53 -6.83,4.23 7.69,19.42 8.96,20.52 7.79,24.72 -1.21,4.19 -5.63,10.5 -20.29,10.72 -3.05,0.04 -3.47,7.63 -0.57,8.01 16.87,2.12 27.45,6.5 30.02,12.15 1.81,3.91 1.01,17.18 1.14,19.52 0.14,3.27 6.4,4.26 7.38,1.47 0.98,-2.76 7.07,-18.7 13.47,-21.17 6.39,-2.47 35.76,-11.17 42.82,-9.68 7.04,1.49 8.53,7.51 7.9,11.48 -2.1,12.03 -6.23,22.18 -12.05,25.91 -5.78,3.69 -34.02,21.55 -35.53,22.86 -1.49,1.31 0.58,6.07 2.54,5.71 1.94,-0.49 29.74,-9.24 32.71,-9.71 3,-0.41 6.53,1.96 7.6,4.8 1.04,2.82 5.61,20.68 6.37,23.06 0.69,2.41 6.54,1.97 6.83,-0.58 0.31,-2.54 -0.82,-25.61 0.05,-28.45 0.91,-2.83 6.84,-26.7 14.43,-34.41 7.61,-7.74 11.79,-8.5 24.1,-3.44 12.4,5.07 71.71,39 87.81,57.48 4.01,4.6 8.44,18.09 -17.87,27.89 -22.99,8.55 -135.2,43.99 -204.77,-36.55 -1.25,-1.44 -6.73,1.11 -5.67,3.15 13.85,25.78 15.36,30.09 13.26,35.8 -2.08,5.66 -5.57,10.91 -26.22,12.48 -1.94,0.18 -2.65,5.71 -0.29,6.26 z m 308.04,0 c 24.89,6.29 38.31,9.71 38.31,14.76 0,5.07 -23.43,26.85 -25.05,28.19 -1.61,1.32 2.35,5.74 4.76,4.47 11.76,-6.26 33.54,-15.66 44.44,-8.49 10.87,7.12 6.47,30.68 5.77,34.45 -0.28,1.62 5.51,3.84 6.6,1.29 0.99,-2.5 14.74,-39.33 25.91,-49.88 11.2,-10.62 37.27,-8.81 43.79,3.41 6.61,12.19 -10.13,39.8 -16.65,46.35 -1.51,1.48 1.94,5.82 3.4,5.06 1.46,-0.75 13.91,-9.62 20.73,-20.23 6.91,-10.56 19.65,-36.7 30.7,-42.95 11,-6.27 41.14,-15.39 45.89,-7.47 4.77,7.89 -12.68,32.06 -13.69,33.22 -1.06,1.22 3.06,6.25 4.6,5.08 26.8,-20.39 53.05,-63.97 53.05,-88.72 0,-23 -42.64,-55.35 -117.89,-89.64 -2.85,-1.31 -5.77,-2.59 -8.68,-3.92 -12.33,-6.42 -6.01,-11.34 39.22,-41.56 1.72,-1.15 3.16,-1.61 5.35,-1.61 2.19,0 60.64,0 60.64,0 0,0 0,-147.99 0,-150.79 0,-1.64 -0.91,-3.14 -2.94,-2.42 -21.38,7.22 -35.62,28.67 -35.62,28.67 0,0 -6.75,-28.38 -26.4,-33.96 -19.61,-5.64 -43.1,26.25 -72.98,76.2 0,0 -34.53,-9.86 -86.25,-32.04 -2.42,-1.06 -4.66,-0.17 -5.68,1.33 -1.06,1.52 -17.37,24.7 -18.27,26.04 -3.55,5.01 -2.88,12.28 2.04,16.94 60.92,57.61 85.41,87.25 94.48,99.71 2.72,3.67 -0.07,4.34 -6.47,4.54 -29.81,1.06 -47.38,-4.65 -69.26,-29.74 -1.37,-1.59 -8.33,0.53 -6.83,4.23 7.74,19.42 8.97,20.52 7.82,24.72 -1.21,4.19 -5.61,10.5 -20.28,10.72 -3.09,0.04 -3.49,7.63 -0.6,8.01 16.9,2.12 27.45,6.5 30.03,12.15 1.82,3.91 1.01,17.18 1.14,19.52 0.15,3.27 6.42,4.26 7.41,1.47 0.94,-2.76 7.04,-18.7 13.45,-21.17 6.38,-2.47 35.75,-11.17 42.79,-9.68 7.08,1.49 8.55,7.51 7.88,11.48 -2.08,12.03 -6.18,22.18 -11.98,25.91 -5.81,3.69 -34.04,21.55 -35.55,22.86 -1.48,1.31 0.61,6.07 2.55,5.71 1.94,-0.49 29.69,-9.24 32.68,-9.71 2.99,-0.41 6.55,1.96 7.59,4.8 1.08,2.82 5.61,20.68 6.37,23.06 0.76,2.41 6.57,1.97 6.84,-0.58 0.3,-2.54 -0.84,-25.61 0.07,-28.45 0.88,-2.83 6.81,-26.7 14.4,-34.41 7.62,-7.74 11.77,-8.5 24.16,-3.44 12.35,5.07 71.67,39 87.75,57.48 4,4.6 8.52,18.09 -17.85,27.89 -22.98,8.55 -135.19,43.99 -204.78,-36.55 -1.23,-1.44 -6.73,1.11 -5.65,3.15 13.86,25.78 15.38,30.09 13.3,35.8 -2.15,5.66 -5.59,10.91 -26.29,12.48 -1.91,0.18 -2.64,5.71 -0.27,6.26 z M 913.109,960.391 H 1968.37 V 1767.31 H 913.109 V 960.391"
         style="fill:#ffffff;fill-opacity:1;fill-rule:nonzero;stroke:none"
         id="path44" />
      <path
         d="m 1110.08,1330.12 c -7.02,-1.55 -11.64,-7.62 -10.31,-13.59 1.29,-5.99 8.04,-9.5 15.08,-8.05 6.97,1.58 11.59,7.63 10.29,13.63 -1.31,5.96 -8.06,9.54 -15.06,8.01"
         style="fill:#ffffff;fill-opacity:1;fill-rule:nonzero;stroke:none"
         id="path46" />
      <path
         d="m 1418.14,1330.12 c -7.04,-1.55 -11.66,-7.62 -10.33,-13.59 1.33,-5.99 8.02,-9.5 15.06,-8.05 6.99,1.58 11.66,7.63 10.32,13.63 -1.3,5.96 -8.04,9.54 -15.05,8.01"
         style="fill:#ffffff;fill-opacity:1;fill-rule:nonzero;stroke:none"
         id="path48" />
      <path
         d="m 1726.17,1330.12 c -7.02,-1.55 -11.61,-7.62 -10.32,-13.59 1.35,-5.99 8.01,-9.5 15.05,-8.05 7.03,1.58 11.63,7.63 10.31,13.63 -1.28,5.96 -8.05,9.54 -15.04,8.01"
         style="fill:#ffffff;fill-opacity:1;fill-rule:nonzero;stroke:none"
         id="path50" />
      <path
         d="m 1968.37,1855.1 -526.99,230.38 -528.271,-231.1 v -39.92 H 1968.37 v 40.64"
         style="fill:#ffffff;fill-opacity:1;fill-rule:nonzero;stroke:none"
         id="path52" />
      <path
         d="m 2321.22,1973.33 c 25.61,0 46.37,20.76 46.37,46.37 0,25.6 -20.76,46.37 -46.37,46.37 -25.61,0 -46.37,-20.77 -46.37,-46.37 0,-25.61 20.76,-46.37 46.37,-46.37"
         style="fill:#ffffff;fill-opacity:1;fill-rule:nonzero;stroke:none"
         id="path54" />
      <path
         d="m 565.766,1973.54 c 25.613,0 46.375,20.76 46.375,46.37 0,25.61 -20.762,46.38 -46.375,46.38 -25.61,0 -46.368,-20.77 -46.368,-46.38 0,-25.61 20.758,-46.37 46.368,-46.37"
         style="fill:#ffffff;fill-opacity:1;fill-rule:nonzero;stroke:none"
         id="path56" />
      <path
         d="m 393.66,1514.23 51.473,-8.91 c 23.781,-4.09 68.027,-11.69 80.129,-19.69 4.601,-2.67 7.375,-11.04 7.125,-21.31 l -0.235,-10.28 c 0.434,-1.13 8.016,-4.27 8.016,-4.27 l 5.059,2.32 c 0.371,0.97 3.746,45.19 3.746,45.19 l 6.265,47.58 c -0.156,0.99 -5.519,4.95 -5.519,4.95 l -6.934,-0.72 c -0.742,-1.08 -2.687,-11.43 -2.687,-11.43 -1.887,-10.01 -5.426,-16.49 -10.004,-18.28 -6.516,-2.4 -26.719,-3.18 -85.754,7.04 l -47.949,8.29 c -49.899,8.65 -106.891,33.16 -95.203,100.76 4.289,24.8 14.093,42.29 29.953,53.47 20.629,14.53 51.429,17.99 94.226,10.58 l 90.09,-15.6 c 43.313,-7.52 47.961,-9.11 44.731,-32.52 l -1.489,-10.16 c 0.746,-2.54 2.68,-3.75 5.371,-4.16 2.688,-0.39 6.094,0.06 7.61,1.97 0.328,0.74 10.711,52.45 10.711,52.45 l 12.957,51.71 c -0.551,3.07 -3.192,4.55 -5.496,5.17 -2.934,0.82 -5.536,0.46 -6.957,-1.02 -0.383,-0.68 -3.579,-11 -3.579,-11 -7.011,-22.33 -13.062,-22.67 -57.371,-15 l -98.472,17.04 c -49.914,8.66 -82.414,3.77 -105.426,-15.85 -18.609,-15.4 -31.078,-40.64 -36.965,-74.99 -5.648,-32.42 0.848,-65.48 16.941,-86.26 17.883,-23.63 49.165,-39.03 95.637,-47.07"
         style="fill:#ffffff;fill-opacity:1;fill-rule:nonzero;stroke:none"
         id="path58" />
      <path
         d="m 591.602,1088.3 c 2.5,-0.53 8.035,-5.98 15.132,-19.58 l 2.774,-5.43 c 2.894,-1.94 6.023,-1.99 8.652,-0.8 2.238,0.97 3.723,2.65 4.211,4.69 -0.086,0.98 -15.668,42.41 -15.668,42.41 l -15.293,48.09 c -1.644,2.28 -4.125,3.09 -6.914,2.71 -3.047,-0.47 -5.59,-2.2 -6.519,-4.46 -0.082,-0.97 1.464,-8.06 1.464,-8.06 3.231,-15.1 3.512,-22.83 0.926,-25.96 -6.203,-7.22 -34.887,-17.95 -80.758,-30.23 l -87.496,-23.49 c -7.504,-1.99 -14.543,-3.87 -16.515,-3.04 1.414,-0.08 56.386,85.69 56.386,85.69 l 33.957,51.68 5.032,7.51 c 14.8,22.14 49.488,74.05 66.496,86.01 0,0.04 0.015,0.11 0.019,0.17 0.258,2.75 -4.718,19.91 -4.718,19.91 -0.028,0.16 -8.77,46.19 -8.77,46.19 -1.602,2.27 -3.598,3.02 -5.98,2.85 -3.102,-0.2 -6.247,-1.91 -7.633,-4.12 -0.258,-1.02 0.426,-8.16 0.426,-8.16 0.71,-8.03 0.55,-19.26 -4.254,-26.78 -7.157,-10.3 -14.996,-12.95 -27.047,-16.12 l -119.231,-31.57 -6.551,-1.78 c -21.976,-5.99 -62.894,-17.15 -77.21,-15.56 -4.176,0.69 -8.129,5.99 -10.778,14.56 -0.023,0.05 -3.582,10.68 -3.582,10.68 -0.715,0.89 -7.59,1.29 -7.59,1.29 l -5.734,-4.69 c -0.074,-1.07 10.094,-42.94 10.094,-42.94 l 8.781,-47.87 c 0.547,-0.96 6.203,-2.61 6.203,-2.61 l 7.301,3.73 c 0.019,0.09 0.039,0.16 0.039,0.25 0.215,2.19 -1.063,13.93 -1.063,13.93 -0.617,4.56 -0.714,8.55 -0.394,11.92 0.422,4.39 1.574,7.66 3.473,9.55 12.011,10.5 75.203,27.68 82.363,29.59 l 89.125,23.92 c 8.949,2.4 18.183,4.48 24.215,4.69 -2.387,-3.45 -41.137,-60.19 -41.137,-60.19 l -82.523,-123.83 c -32.25,-48.36 -42.372,-62.43 -47.622,-68.73 0.914,-6.12 3.946,-9.03 7.762,-9.26 7.238,2.69 30.676,9.43 70.36,20.07 l 103.546,27.8 c 20.004,5.38 66.829,18.09 82.243,15.37"
         style="fill:#ffffff;fill-opacity:1;fill-rule:nonzero;stroke:none"
         id="path60" />
      <path
         d="m 734.469,883.809 c 1.972,1.531 4.183,4.179 3.89,6.589 -0.32,0.774 -31.007,43.301 -31.007,43.301 l -29.028,44.699 c -2.699,1.782 -5.886,0.762 -8.121,-0.597 -1.258,-0.762 -4.164,-2.781 -4.133,-5.551 0.219,-0.789 5.5,-10.02 5.5,-10.02 11.586,-20.421 7.313,-24.449 -29.629,-49.75 L 517.555,827.371 c -36.614,-25.09 -41.18,-27.23 -56.813,-9.383 l -7.027,8.051 c -3.699,1.031 -6.656,-0.641 -8.5,-2.43 -1.899,-1.8 -2.832,-3.839 -2.586,-5.558 0.309,-0.762 31.441,-44.031 31.441,-44.031 l 28.551,-43.969 c 2.723,-1.742 5.887,-0.68 8.152,0.64 1.254,0.75 4.137,2.789 4.11,5.539 -0.211,0.731 -5.129,10.168 -5.129,10.168 -10.992,21.063 -7.348,24.52 29.254,49.563 l 124.406,85.148 c 36.941,25.309 42.227,27.86 57.059,9.641 l 6.711,-8.262 c 3.191,-1.508 6.129,0.41 7.285,1.321"
         style="fill:#ffffff;fill-opacity:1;fill-rule:nonzero;stroke:none"
         id="path62" />
      <path
         d="m 1030.06,642.34 c 1.11,2.18 1.32,4.238 0.57,5.808 -0.66,0.711 -34.685,22.153 -34.685,22.153 l -34.894,25.129 c -3.121,0.488 -5.715,-0.782 -7.625,-3.051 -1.367,-1.641 -2.16,-3.391 -2.278,-5.078 -0.035,-0.602 0.016,-1.192 0.157,-1.75 0.531,-0.871 6.183,-5.75 6.183,-5.75 8.192,-7.063 10.828,-11.672 10.692,-13.84 -0.016,-0.422 -0.149,-0.723 -0.321,-1 L 955.078,653.93 866.523,603.172 c 0,0 -73.125,-41.434 -88.511,-50.141 1.843,7.047 38.761,149.25 38.761,149.25 9.051,33.617 17.223,56.547 19.106,60.449 1.144,1.02 4.445,1.379 17.789,-7.269 l 5.406,-3.41 c 3.121,-0.211 5.262,1.097 6.809,3.41 1.601,2.437 2.121,5.34 1.301,7.488 -0.52,0.723 -40.727,32.961 -40.727,32.961 l -33.043,29.531 c -3.191,0.731 -5.625,-0.25 -7.434,-2.152 -1.925,-2.07 -2.82,-4.73 -2.335,-7.219 0.418,-0.82 5.789,-6.39 5.789,-6.39 12.054,-12.801 11.875,-23.258 5.207,-48.25 l -52.2,-193.95 c -4.628,-18.761 -11.3,-39.32 -18.347,-56.441 0.101,-1.469 4.808,-6.809 4.808,-6.809 0.036,-0.011 5.348,-2.089 5.348,-2.089 20.91,14.23 67.23,41.8 102.699,61.839 l 49.649,27.711 c 43.66,24.348 80.14,42.469 99.742,51.36 10.148,4.347 17.74,4.39 25.44,0.109 l 10.82,-6.25 c 3.73,0.281 6.23,3.051 7.46,5.43"
         style="fill:#ffffff;fill-opacity:1;fill-rule:nonzero;stroke:none"
         id="path64" />
      <path
         d="m 1291.35,562.512 c -4.99,0.289 -28.91,7.687 -54.22,15.508 -0.34,0.121 -76.41,23.671 -76.41,23.671 l -47.29,15.957 c -3.18,-0.308 -5.04,-3.109 -5.96,-5.546 -0.52,-1.321 -1.5,-4.743 0.2,-6.872 0.61,-0.46 6.85,-3.281 6.85,-3.281 21.68,-9.66 20.99,-14.597 8,-56.597 l -45.1,-145.622 c -13.15,-42.562 -16.78,-46.449 -38.81,-41.671 l -13.71,2.929 c -3.62,-1.468 -4.87,-4.629 -5.22,-7.168 -0.37,-2.601 0.14,-4.789 1.39,-5.98 0.7,-0.379 56.03,-16.199 56.03,-16.199 l 36.42,-11.231 107.97,-34.832 c 10.56,9.953 30.31,38.051 37.56,51.383 -0.08,3.32 -1.58,5.539 -3.91,7.027 -2.35,1.524 -5.08,2.012 -7.25,1.313 -16.33,-16.789 -32.04,-28.512 -40.69,-30.321 -10.26,-1.699 -23.14,0.692 -52.85,9.899 -35.97,11.16 -42.11,18.082 -45.08,23.672 -4.06,8.238 -1.07,22.097 5.45,43.168 l 17.65,57.031 c 2.87,9.25 3.01,9.309 14.72,5.73 l 23.43,-7.289 c 14.7,-4.562 24.86,-8.07 30.07,-11.461 7.1,-4.3 7.61,-11.089 7.08,-17.789 l -1.27,-16.882 c 1.23,-3.309 4.45,-4.809 6.9,-5.329 2.74,-0.582 5.1,-0.128 6.52,1.192 0.45,0.707 4.41,15.84 4.41,15.84 l 6.44,24.168 8.58,24.429 5.68,15.93 c -0.39,2.731 -2.1,4.422 -4.65,5.461 -2.31,0.98 -5.85,1.57 -8.19,0.059 -0.55,-0.61 -8.92,-16.18 -8.92,-16.18 -5.13,-9.449 -8.36,-10.188 -12.7,-10.301 -4.94,-0.09 -17.23,2.762 -34.61,8.121 l -23.45,7.27 c -11.78,3.64 -11.78,3.64 -8.78,13.429 l 25.09,80.891 c 2.33,7.609 3.63,11.781 5.59,12.82 1.5,0.801 4.15,0.18 9.46,-1.468 l 29.12,-8.993 c 17.81,-5.527 30.42,-9.91 38.15,-14.449 17.83,-10.828 17.9,-24.777 18,-44.097 v -2.454 c 0.88,-2.398 2.86,-3.789 5.55,-4.476 2.24,-0.563 5.57,-0.684 7.51,0.906 0.58,0.922 1.77,6.461 1.77,6.461 3.93,18.402 9.29,43.602 9.03,50.66 l -0.06,1.461 -1.49,0.102"
         style="fill:#ffffff;fill-opacity:1;fill-rule:nonzero;stroke:none"
         id="path66" />
      <path
         d="m 1532.87,418.949 c -21.33,-2.097 -27.04,-1.758 -28.07,-1.078 -0.9,1.02 -1.44,6.379 -2.04,12.649 l -9.67,98.781 c -0.44,4.89 -0.46,7.48 0.93,9.078 2.32,2.672 9.68,3.519 23.37,4.191 49,2.52 70.17,-26.07 72.26,-55.84 1.62,-23.628 -2.7,-40.921 -15.4,-52.98 -11.45,-10.629 -28.14,-13.48 -41.38,-14.801 z m 182.87,-114.187 c -11.07,-0.492 -22.6,2.308 -30.72,7.828 -32.26,20.672 -59.9,53.219 -98.39,100.551 -2.92,3.609 -2.97,5.898 -2.01,7.379 11.49,5.73 49.93,29.851 45.32,76.601 -3.39,34.551 -24.63,50.008 -41.81,56.899 -18.92,8.019 -40.79,6.769 -64.71,5.511 l -7.02,-0.39 c -38.24,-1.961 -67.74,-4.539 -92.92,-8.18 -2.39,-1.262 -3.46,-3.391 -3.47,-6.102 -0.08,-2.668 0.95,-6.05 3.38,-7.629 0.78,-0.269 14.32,-1.269 14.32,-1.269 15.43,-1.133 17.66,-5.992 21.58,-47.602 l 14.64,-152.578 c 4.41,-45.133 3.57,-47.511 -18.69,-51.429 l -10.44,-1.832 c -2.75,-2.989 -2.65,-6.372 -2.02,-8.739 0.68,-2.453 1.97,-4.25 3.57,-4.941 0.82,-0.121 53.19,3.879 53.19,3.879 l 50.15,1.351 c 2.97,1.5 3.35,4.692 3.45,5.989 0.12,2.652 -0.48,6.019 -2.66,7.652 -0.83,0.301 -9.8,1.109 -9.8,1.109 -23.5,1.989 -24.55,6.16 -28.96,50.692 l -5.21,53.078 c -0.75,7.64 -0.75,7.64 17.39,9.43 16.38,1.621 23.82,-2.2 31.02,-10.309 l 49.93,-57.891 c 33.73,-36.929 55.4,-47.461 93.7,-42.59 l 18.71,4.629 c 1.82,1.731 2.27,3.75 1.75,5.621 -0.5,1.668 -1.74,2.891 -3.27,3.282"
         style="fill:#ffffff;fill-opacity:1;fill-rule:nonzero;stroke:none"
         id="path68" />
      <path
         d="m 1899.46,538.5 -39.91,1.281 c -27.82,1.328 -46.65,10.149 -55.91,26.09 -3.02,5.18 -6.96,13.859 -7.24,23.777 -0.35,12.731 5.28,27.582 26.61,39.981 33.2,19.269 55.79,3.609 71.84,-12.231 2.31,-1 4.45,-0.546 6.62,0.883 2.24,1.481 4.55,4.09 4.67,6.61 -9.58,17.031 -25.07,35.609 -33.15,42.23 -1.86,0.129 -15.58,-4.961 -15.58,-4.961 -11.26,-2.601 -25.57,-8.422 -37.16,-15.18 -45.49,-26.421 -61.06,-70.058 -38.67,-108.601 18.04,-31.117 52.09,-39.348 77.44,-40.789 l 47.97,-2.512 c 35.52,-1.668 49.08,-16.808 58.46,-33 6.5,-11.168 8.41,-23.66 5.38,-35.129 -3.32,-12.48 -12.34,-23.308 -26.11,-31.328 -37.9,-22.019 -71.27,-2.48 -92.64,17.75 -1.94,1.027 -3.87,0.82 -5.85,-0.301 -2.33,-1.269 -4.81,-3.898 -5.12,-6.898 10.51,-17.082 30.74,-41.203 40.47,-47.113 12.71,-0.207 37.02,2.382 66.62,19.652 25.43,14.738 42.06,34.539 48.08,57.238 1.77,6.731 2.58,13.52 2.38,20.332 -0.36,12.731 -4.13,25.489 -11.23,37.649 -16.71,28.808 -45.46,43.379 -87.97,44.57"
         style="fill:#ffffff;fill-opacity:1;fill-rule:nonzero;stroke:none"
         id="path70" />
      <path
         d="m 2262.52,612.199 c -0.73,-0.301 -9.42,-6.398 -9.42,-6.398 -19.47,-13.762 -22.83,-11.051 -53,22.41 l -100.78,112.098 c -29.94,33.312 -33.14,38.222 -17.07,55.332 l 7.35,7.699 c 1.04,3.41 -1.35,6.101 -2.36,7.121 -1.89,1.828 -4.71,3.559 -7.01,2.918 -0.73,-0.391 -38.87,-36.438 -38.87,-36.438 l -40.44,-34.679 c -1.38,-2.871 0,-5.864 1.64,-7.91 0.93,-1.133 3.34,-3.801 6.08,-3.391 0.75,0.309 9.19,6.738 9.19,6.738 18.74,14.192 23.25,10.5 53.22,-22.789 l 100.81,-112.058 c 29.66,-33.012 32.39,-37.231 16.71,-55.114 l -7.01,-8 c -0.54,-3.847 1.54,-6.519 3.53,-8.097 2.08,-1.661 4.19,-2.301 5.87,-1.891 0.71,0.41 39.45,36.98 39.45,36.98 l 39.84,34.168 c 1.37,2.911 -0.08,5.911 -1.69,7.954 -0.91,1.136 -3.3,3.75 -6.04,3.347"
         style="fill:#ffffff;fill-opacity:1;fill-rule:nonzero;stroke:none"
         id="path72" />
      <path
         d="m 2488.76,910.352 c -1.22,0.82 -4.34,2.539 -6.8,1.339 -0.58,-0.57 -8.4,-11.691 -8.4,-11.691 -13.64,-18.91 -18.3,-17.121 -56.42,4.73 l -163.55,93.59 c -6.07,3.46 -9.02,5.16 -9.47,6.75 -0.41,1.53 1.14,4.35 3.7,8.82 l 14.92,26.06 c 11.49,20.04 22.22,32.04 32.82,36.7 5.01,2.21 16.26,-0.02 30.81,-6.16 3.54,0.35 5.77,3.03 6.8,5.54 1.11,2.57 1.11,5.1 -0.08,6.86 -12.22,5.72 -40.16,25.07 -52.91,37.76 -4.22,0.58 -7.32,-4.41 -7.71,-6.96 6.13,-11.16 5.63,-13.91 -5.89,-33.95 L 2181.4,930.941 c -10.75,-18.871 -16.45,-27.761 -27.32,-23.992 -3.62,-0.699 -6.29,-6.578 -6.14,-8.668 13.79,-12.109 33.97,-30.91 47.13,-46.25 3.66,-0.742 6.48,0.547 8.49,2.731 1.86,1.957 2.74,4.367 2.44,6.648 -6.81,9.5 -12.89,17.77 -15.92,31.199 -2.96,12.891 6.7,32.121 16.52,49.27 l 11.55,20.191 c 2.63,4.641 4.35,7.489 5.98,7.942 1.67,0.437 4.75,-1.321 9.87,-4.262 l 164.25,-94.012 c 38.61,-22.109 41.63,-26.476 32.2,-46.937 l -6.47,-13.852 c -0.03,-3.148 1.7,-5.429 4.55,-6.871 2.03,-1.019 5.08,-1.758 7.06,-0.449 0.54,0.601 28.63,52.25 28.63,52.25 l 28.61,47.441 c 0.37,3.192 -1.9,5.59 -4.07,7.032"
         style="fill:#ffffff;fill-opacity:1;fill-rule:nonzero;stroke:none"
         id="path74" />
      <path
         d="m 2573.35,1375.27 c -3.34,-0.48 -5.39,-2.25 -6.62,-4.77 -1.2,-2.48 -1.34,-5.23 -0.39,-7.3 18.43,-14.36 31.81,-28.68 34.55,-37.09 2.83,-9.99 1.86,-23.05 -4.01,-53.59 -7.13,-37 -13.31,-43.9 -18.57,-47.43 -7.76,-4.92 -21.85,-3.49 -43.51,0.68 l -58.61,11.28 -7.95,2.88 c -1.09,1.61 -0.48,5.28 0.63,11.04 l 4.67,24.14 c 2.77,14.57 5.21,25.44 8.06,31.16 3.48,7.57 10.17,8.75 16.87,8.96 l 16.95,0.64 c 3.15,1.52 4.3,4.92 4.56,7.4 0.29,2.79 -0.38,5.08 -1.87,6.37 -0.78,0.36 -16.18,2.61 -16.18,2.61 l -24.84,3.74 -25.37,5.88 -16.3,3.83 c -2.68,-0.67 -4.17,-2.58 -4.97,-5.28 -0.68,-2.38 -0.85,-5.95 0.92,-8.07 0.62,-0.46 17.05,-7.07 17.05,-7.07 9.94,-4.09 11.05,-7.18 11.62,-11.47 0.61,-4.92 -0.96,-17.81 -4.31,-35.31 l -4.61,-24.12 c -2.35,-12.1 -2.35,-12.1 -12.39,-10.19 l -83.14,16.03 c -15,2.89 -15,2.89 -12.92,13.75 l 5.75,29.92 c 3.49,18.26 6.44,31.26 10.11,39.49 8.76,18.84 22.55,20.47 41.62,22.74 l 2.65,0.27 c 2.3,1.14 3.49,3.26 3.86,5.98 0.34,2.33 0.06,5.63 -1.72,7.4 -1,0.48 -6.82,1.05 -6.82,1.05 -18.62,1.88 -44.14,4.44 -51.13,3.38 l -1.5,-0.24 0.09,-1.49 c 0.29,-4.91 -4.31,-28.92 -9.21,-54.38 -0.3,-1.57 -15.32,-79.75 -15.32,-79.75 l -10.67,-48.74 c 0.67,-3.14 3.62,-4.67 6.15,-5.32 1.42,-0.36 4.92,-0.99 6.86,0.96 0.4,0.62 2.48,7.15 2.48,7.15 7.19,22.65 12.2,22.46 55.4,14.18 l 149.71,-28.75 c 43.71,-8.42 47.99,-11.59 45.66,-33.99 l -1.39,-14 c 1.88,-3.41 5.19,-4.32 7.73,-4.36 2.6,-0.08 4.72,0.69 5.77,2.07 0.3,0.72 9.93,57.46 9.93,57.46 l 7.18,37.41 22.65,111.15 c -10.97,9.36 -41.01,25.92 -55.16,31.71"
         style="fill:#ffffff;fill-opacity:1;fill-rule:nonzero;stroke:none"
         id="path76" />
      <path
         d="m 2335.39,1663.85 -6.37,29.46 c -4.88,22.56 -4.95,38.61 -0.13,49.04 2.26,4.95 12.09,10.53 27.03,15.28 2.54,2.67 2.27,6.14 1.51,8.49 -0.89,2.78 -2.62,4.69 -4.68,5.27 -12.99,-3.58 -46.79,-7.07 -64.81,-5.76 -3.61,-2.27 -2.53,-8.08 -1.04,-10.26 11.94,-4.45 13.42,-6.88 18.33,-29.55 l 36.34,-167.93 c 4.57,-21.34 6.26,-31.67 -4.29,-35.83 -2.29,-2.97 -0.31,-9.15 1.18,-10.6 18.26,-0.18 45.89,-1.33 66.12,-4.39 3.19,1.79 4.43,4.52 4.54,7.43 0.08,2.73 -0.84,5.18 -2.6,6.74 -11.44,2.82 -21.56,5.08 -32.81,13.3 -10.8,7.88 -16.56,28.69 -20.78,48.05 l -4.92,22.82 c -1.12,5.2 -1.74,8.48 -0.86,9.82 0.94,1.43 4.41,2.1 10.16,3.21 l 185.51,35.37 c 43.73,8.32 48.88,6.96 55,-14.74 l 4.1,-14.72 c 2,-2.46 4.81,-3.02 7.94,-2.26 2.31,0.56 4.96,1.96 5.59,4.26 0.03,0.79 -12.2,58.31 -12.2,58.31 l -9.16,54.67 c -1.77,2.66 -5.07,2.99 -7.65,2.66 -1.46,-0.19 -4.95,-0.91 -6,-3.43 -0.15,-0.81 1.13,-14.37 1.13,-14.37 1.99,-23.17 -2.69,-24.84 -45.87,-33.06 l -185.53,-35.31 c -12.52,-2.41 -12.51,-2.42 -14.78,8.03"
         style="fill:#ffffff;fill-opacity:1;fill-rule:nonzero;stroke:none"
         id="path78" />
      <path
         d="m 665.832,2304.52 c 0.809,0.28 9.398,6.18 9.398,6.18 18.793,12.65 21.458,11.28 46.942,-24.34 0.023,-0.02 59.687,-80.63 59.687,-80.63 29.914,-40.88 56.719,-59.93 86.864,-61.78 23.672,-1.83 48.422,6.9 77.91,27.53 27.5,19.21 44.133,43.13 48.058,69.16 4.7,29.28 -5.785,62.59 -32.058,101.69 l -26.656,39.72 c -6.286,9.36 -37.778,56.96 -40.567,73.65 -1.125,4.93 3.422,11.86 11.551,17.74 l 8.172,5.92 c 0.672,1.14 -1.891,8.35 -1.891,8.35 l -5.515,2.7 c -0.934,-0.28 -37.86,-24.04 -37.86,-24.04 l -41.59,-23.59 c -0.718,-0.81 -0.285,-6.73 -0.285,-6.73 l 5.61,-5.25 c 1.211,0.09 10.671,4.78 10.671,4.78 9.317,4.64 16.747,5.81 21.481,3.4 11.527,-6.03 33.601,-39.19 48.195,-61.12 l 32,-47.73 c 18.289,-27.21 28.039,-51.16 29.242,-72.09 1.489,-25.66 -9.918,-46.81 -34.187,-63.76 -47.434,-33.17 -88.602,-20.6 -133.5,40.74 l -54.371,73.77 -1.488,2.09 c -24.325,33.92 -26.875,37.46 -10.711,53.11 l 7.285,7.03 c 1.035,2.61 0.168,5.18 -1.922,7.5 -0.777,0.86 -3.5,3.64 -6.262,3.11 -0.781,-0.4 -39.84,-33.77 -39.84,-33.77 l -40.918,-31.51 c -1.496,-2.86 -0.332,-6.15 1.235,-8.44 1.59,-2.28 3.523,-3.52 5.32,-3.39"
         style="fill:#ffffff;fill-opacity:1;fill-rule:nonzero;stroke:none"
         id="path80" />
      <path
         d="m 1085.41,2560.51 c 24.71,1.71 28.63,-1.64 32.19,-27.61 l 11.06,-92.69 7.55,-85.9 1.01,-13.07 c 2.36,-29.06 -3.05,-32.67 -19.02,-38.79 -0.04,0 -8.99,-3.59 -8.99,-3.59 -1.86,-2.02 -2.26,-4.34 -1.71,-6.86 0.62,-2.82 2.24,-5.26 4.16,-6.21 1.23,-0.11 43.43,12.04 43.43,12.04 l 46.39,10.67 c 2.31,1.5 3.18,3.89 2.94,6.68 -0.17,2.43 -1.28,5.48 -3.84,6.81 -1.03,0.15 -17.1,-2.7 -17.1,-2.7 -6.26,-1.14 -10.09,-0.79 -12.83,1.13 -5.02,3.5 -7.58,13.61 -10.56,31.05 l -12.62,93.59 -1.06,9.13 c 0,0 -6.87,61.45 -7.83,70.02 4.15,-6.19 19.95,-29.78 19.95,-29.78 l 14.2,-21.8 51.18,-74.26 7.3,-10.45 c 13.73,-19.61 34.39,-49.23 43.44,-66.69 1.83,-2.11 4.81,-2.07 5.74,-1.91 2.55,0.44 4.34,1.58 5.14,3.33 4.1,19.48 15.46,59.77 29.07,102.99 l 24.88,79.32 8.46,28.14 c 0,0 6.05,19.6 8.07,26.13 1.7,-9.25 31.19,-169.75 31.19,-169.75 1.5,-9.12 2.6,-15.73 2.71,-20.62 0.24,-9.79 -3.54,-12.73 -15.88,-14.93 l -11.94,-2.15 c -1,-0.6 -2.13,-7.08 -2.13,-7.08 l 4.19,-6.47 c 1.01,-0.21 51.34,4.72 51.34,4.72 l 49.51,2.28 c 2.35,1.38 3.2,3.24 3.27,5.63 0.06,2.63 -0.88,6.09 -3.21,7.94 -1,0.37 -14.59,0.66 -14.59,0.66 -17.7,0.62 -19.65,9.34 -23.95,28.44 l -0.69,3.11 -36.7,181.98 c -5.17,28.55 -3.85,35.66 21.31,40.43 l 8.62,1.47 c 2.53,2.18 2.25,5.45 2.02,6.78 -0.17,1.23 -1.02,5.35 -3.72,6.84 -0.99,0.17 -37.97,-3.78 -37.97,-3.78 l -33.2,-1.07 0.13,-1.79 c 0.24,-1.83 0.36,-3.75 0.41,-5.73 0.42,-18.82 -7.36,-43.77 -18.53,-79.78 l -28,-93.77 c 0,0 -19.17,-59.98 -19.29,-60.36 -0.21,2.99 -31.02,44.7 -31.02,44.7 l -5.48,7.66 0.01,-0.01 -63.91,91.12 c -14.77,19.88 -31.84,44.89 -32.97,62.33 l -0.17,2 -35.42,-9.64 c -0.85,-0.19 -33.89,-6.63 -33.89,-6.63 -2.41,-1.69 -3.4,-4.03 -3.38,-6.74 0,-2.9 1.03,-5.54 2.74,-6.89 1.2,-0.33 7.95,0.4 7.99,0.38"
         style="fill:#ffffff;fill-opacity:1;fill-rule:nonzero;stroke:none"
         id="path82" />
      <path
         d="m 1615.92,2325.31 36.9,-9.34 109.68,-29.02 c 10.03,10.44 28.25,39.51 34.83,53.26 -0.29,3.35 -1.88,5.46 -4.35,6.84 -2.42,1.39 -5.15,1.7 -7.29,0.86 -15.42,-17.57 -30.44,-30.11 -39.01,-32.37 -10.16,-2.24 -23.11,-0.54 -53.29,7.11 -36.49,9.21 -43,15.81 -46.25,21.24 -4.5,8.07 -2.25,22.03 3.16,43.41 l 14.61,57.9 3.38,7.75 c 1.65,1 5.26,0.17 10.98,-1.28 l 23.82,-6.01 c 15,-3.81 25.34,-6.79 30.66,-9.89 7.37,-3.94 8.15,-10.66 7.99,-17.32 l -0.39,-16.97 c 1.37,-3.25 4.71,-4.59 7.16,-4.98 2.73,-0.44 5.08,0.12 6.47,1.5 0.37,0.75 3.52,16.05 3.52,16.05 l 5.2,24.5 7.32,24.94 4.8,16.11 c -0.54,2.75 -2.39,4.35 -5.03,5.26 -2.36,0.84 -5.9,1.21 -8.11,-0.41 -0.51,-0.64 -8.06,-16.64 -8.06,-16.64 -4.61,-9.67 -7.79,-10.6 -12.11,-10.92 -4.99,-0.38 -17.41,1.86 -35,6.3 l -23.79,6 c -12.01,3.04 -12.01,3.04 -9.46,12.97 l 20.76,82.05 c 1.93,7.72 2.98,11.96 4.91,13.1 1.45,0.88 4.14,0.4 9.54,-0.97 l 29.54,-7.47 c 18.11,-4.57 30.92,-8.24 38.84,-12.38 18.35,-9.83 19.18,-23.69 20.32,-42.85 l 0.2,-2.67 c 0.96,-2.34 3.02,-3.67 5.74,-4.22 2.26,-0.43 5.56,-0.36 7.42,1.31 0.53,0.98 1.46,6.73 1.46,6.73 2.94,18.5 6.97,43.84 6.34,50.91 l -0.16,1.5 h -1.51 c -4.97,0 -28.96,6.04 -54.35,12.46 -0.99,0.25 -78.14,19.75 -78.14,19.75 l -48.04,13.45 c -3.18,-0.5 -4.88,-3.35 -5.67,-5.83 -0.46,-1.41 -1.29,-4.86 0.53,-6.91 0.62,-0.41 7.02,-2.88 7.02,-2.88 22.19,-8.51 21.74,-13.49 10.96,-56.13 l -37.34,-147.8 c -10.91,-43.16 -14.33,-47.24 -36.56,-43.65 l -13.86,2.2 c -3.52,-1.65 -4.61,-4.87 -4.84,-7.38 -0.2,-2.63 0.43,-4.8 1.75,-5.92 0.72,-0.37 56.8,-13.25 56.8,-13.25"
         style="fill:#ffffff;fill-opacity:1;fill-rule:nonzero;stroke:none"
         id="path84" />
      <path
         d="m 1986.02,2302.44 c 0.03,1.01 3.25,3.32 5.38,4.85 0.04,0.02 72.43,50.99 72.43,50.99 0,0 14.84,9.51 20.1,12.86 -1.23,-4.5 -6.63,-24.39 -6.63,-24.39 l -24.49,-79 c -1.15,-3.86 -2.51,-8.05 -4.14,-8.61 -1.58,-0.54 -4.99,1.66 -8.48,4.12 l -47.36,33.26 c -3.02,2.14 -6.81,4.79 -6.81,5.9 z m 129,137.66 c 8.53,12.11 23.05,15.86 33.47,8.52 10.69,-7.57 11.74,-22.26 3.18,-34.38 -8.79,-12.46 -22.74,-16.08 -33.46,-8.5 -10.4,7.32 -12.02,21.93 -3.19,34.36 z m -267.77,-190.7 25.99,-15.05 12.1,-7.79 24,-16.01 c 3.2,-0.64 5.77,0.58 7.63,2.93 1.9,2.36 2.56,5.23 1.73,7.37 -0.52,0.7 -11.5,8.99 -11.5,8.99 -7.86,5.88 -7.16,8.15 -5.06,11.18 2.68,3.83 12.08,11.9 27.96,24.03 l 28.75,19.6 c 6.82,5 8.73,4.9 17.11,-1 l 57.04,-40.08 c 10.09,-7.08 10.15,-8.42 7.47,-16.8 -0.02,-0.03 -13.58,-47.15 -13.58,-47.15 -2.74,-8.73 -5.65,-17.4 -8.47,-21.33 -1.66,-2.37 -6.8,-1.11 -13.72,3.39 l -10.32,6.63 c -2.98,0.32 -5.22,-1.1 -6.76,-3.49 -1.73,-2.61 -2.13,-5.61 -1.09,-7.81 0.5,-0.61 7.91,-6.1 7.91,-6.1 l 31.25,-23.77 39.09,-32.93 c 3.49,-0.33 5.85,1.86 7.18,3.68 1.62,2.34 2.21,4.7 1.61,6.72 -0.42,0.68 -8.56,8.84 -8.56,8.84 -12.58,12.66 -12.84,21.28 -1.66,57.6 l 50.88,172.68 6.17,21.14 6.66,22.41 c 16.09,-3.24 32.02,2.93 40.88,15.48 12.19,17.31 8.97,42.88 -11.42,57.28 -20.4,14.42 -45.56,8.85 -57.8,-8.44 -9.48,-13.46 -9.44,-32.08 0.75,-46.48 l -23.73,-16.54 -101.18,-68.51 c 2.98,-0.21 -82.25,-54.11 -57.46,-37.8 l -27.48,-18 c -11.56,-8.01 -21.33,-9.25 -31.7,-3.98 l -12.48,6.19 c -3,-0.09 -5.08,-1.79 -6.54,-4.35 -1.15,-2 -2.05,-4.87 -1.15,-7 0.71,-0.77 9.5,-5.73 9.5,-5.73"
         style="fill:#ffffff;fill-opacity:1;fill-rule:nonzero;stroke:none"
         id="path86" />
    </g>
  </g>
</svg>
